<svg version="1.1" xmlns="http://www.w3.org/2000/svg" style="display: block;" viewBox="0 0 1146 2048" width="752" height="1344" preserveAspectRatio="none">
<defs>
	<linearGradient id="Gradient1" gradientUnits="userSpaceOnUse" x1="253.845" y1="1124.49" x2="244.039" y2="1130.38">
		<stop class="stop0" offset="0" stop-opacity="1" stop-color="rgb(71,123,157)"/>
		<stop class="stop1" offset="1" stop-opacity="1" stop-color="rgb(139,194,223)"/>
	</linearGradient>
</defs>
<path transform="translate(0,0)" fill="rgb(0,0,0)" d="M 0 0 L 136.96 0 L 162.925 0 L 186.938 0 L 214.493 0 L 240.751 0 L 267.239 0 L 294.279 0 L 323.446 0 L 349.49 0 L 376.233 0 L 400.99 0 L 403.239 0 L 428.938 0 L 456.869 0 L 483.155 0 L 511.66 0 L 538.412 0 L 567.75 0 L 593.847 0 L 621.266 0 L 646.816 0 L 674.29 0 L 699.51 0 L 728.06 0 L 754.5 0 L 783.187 0 L 808.689 0 L 838.188 0 L 1008.13 0 L 1035.64 0 L 1059.89 0 L 1085.83 0 L 1111.78 0 L 1138.48 0 L 1146 0 L 1146 28.8883 L 1146 55.8695 L 1146 1014.3 L 1146 1076.42 L 1146 1383.54 L 1146 2048 L 1101.65 2048 L 1032.42 2048 L 1017.01 2048 L 914.328 2048 L 588.033 2048 L 580.695 2048 L 461.009 2048 L 452.052 2048 L 238.706 2048 L 202.729 2048 L 187.709 2048 L 97.8049 2048 L 0 2048 L 0 1870.24 L 0 1790.53 L 0 1435.43 L 0 1378.36 L 0 1050.24 L 0 1001.39 L 0 55.0914 L 0 29.1618 L 0 0 z"/>
<path transform="translate(0,0)" fill="rgb(254,254,254)" d="M 0 0 L 136.96 0 L 162.925 0 L 186.938 0 L 214.493 0 L 240.751 0 L 267.239 0 L 294.279 0 L 323.446 0 L 349.49 0 L 376.233 0 L 400.99 0 L 403.239 0 L 428.938 0 C 428.838 8.47942 428.33 21.0448 428.907 29.1935 C 429.168 38.789 429.198 48.3893 428.997 57.9862 C 428.535 67.7393 429.081 70.3788 429.75 79.7969 C 395.391 94.8017 361.743 112.048 336.189 140.352 C 313.542 145.857 277.492 153.559 285.543 185.61 C 285.667 186.095 285.799 186.577 285.94 187.057 C 282.943 188.728 278.798 190.728 276.134 192.727 C 246.084 215.267 252.916 244.425 284.773 258.498 C 272.296 275.405 260.712 290.481 249.565 308.492 C 199.968 388.63 173.853 474.614 151.515 565.231 C 141.541 605.693 131.237 657.668 118.978 696.513 C 99.3109 758.829 68.3629 824.937 44.3219 886.171 L 12.6045 969.137 C 10.7956 973.909 2.14249 998.27 0 1001.39 L 0 55.0914 L 0 29.1618 L 0 0 z"/>
<path transform="translate(0,0)" fill="rgb(244,243,243)" d="M 136.96 0 L 162.925 0 L 186.938 0 L 214.493 0 L 240.751 0 L 267.239 0 L 294.279 0 L 323.446 0 L 349.49 0 L 376.233 0 C 376.138 9.41241 376.239 18.979 376.249 28.4061 C 384.626 28.5076 391.257 28.6752 399.578 29.4612 C 392.798 30.1503 383.981 29.9724 377.006 30.0061 C 377.027 37.1289 376.911 44.2513 376.657 51.3696 C 375.707 44.4102 375.948 36.1404 375.929 29.0332 L 349.906 29.0525 C 349.939 38.7317 350.026 48.4106 350.168 58.0888 C 341.145 58.0376 332.121 58.061 323.098 58.1591 C 323.191 66.9649 323.524 76.6068 322.549 85.2844 C 321.855 76.8725 322.026 67.5143 322 59 C 317.362 59.0677 299.083 57.7735 296.726 58.9536 C 295.169 67.2559 296.974 77.9678 295.431 84.8365 C 294.209 79.8646 294.828 63.7554 294.908 57.7638 C 285.766 57.4584 276.62 57.2746 267.473 57.2126 L 267.056 82.9884 C 257.833 83.0654 250.815 83.0994 241.674 82.2525 C 241.562 91.0785 241.3 99.9019 240.887 108.719 C 233.936 108.281 221.713 108.2 215.08 108.964 L 215.094 80.9743 C 205.872 81.3044 197.429 81.1015 188.195 80.8647 C 187.716 72.752 187.536 64.1524 187.227 55.9909 C 179.751 56.3284 170.673 56.0872 163.076 56.0794 L 162.926 82.8563 L 136.827 82.7851 C 137.066 73.8541 137.41 64.9263 137.861 56.0036 C 146.553 55.3419 153.898 55.0826 162.621 54.9749 C 162.067 46.5578 162.222 37.6405 162.224 29.1645 C 131.811 30.0316 136.779 29.1133 136.96 0 z"/>
<path transform="translate(0,0)" fill="rgb(254,254,254)" d="M 267.239 0 L 294.279 0 C 294.157 9.16636 294.727 19.5006 295.039 28.7502 L 267.446 28.8048 C 266.966 20.0734 267.252 8.9129 267.239 0 z"/>
<path transform="translate(0,0)" fill="rgb(254,254,254)" d="M 214.493 0 L 240.751 0 L 241.106 28.9809 L 214.507 28.9507 C 214.689 19.0752 214.836 9.89862 214.493 0 z"/>
<path transform="translate(0,0)" fill="rgb(254,254,254)" d="M 323.446 0 L 349.49 0 L 349.63 28.737 L 323.228 28.5788 C 323.068 19.3754 323.365 9.275 323.446 0 z"/>
<path transform="translate(0,0)" fill="rgb(254,254,254)" d="M 162.925 0 L 186.938 0 L 186.959 28.9136 L 162.666 28.9722 L 162.925 0 z"/>
<path transform="translate(0,0)" fill="rgb(254,254,254)" d="M 295.541 29.0213 L 322.893 29.0535 C 322.756 38.3648 322.945 48.1513 322.976 57.5048 C 313.813 57.5058 304.651 57.341 295.495 57.0103 C 295.62 47.6811 295.636 38.3508 295.541 29.0213 z"/>
<path transform="translate(0,0)" fill="rgb(254,254,254)" d="M 241.524 29.0774 C 247.433 29.0836 261.967 28.6988 267.189 29.2449 L 267.313 56.9097 C 258.782 56.8486 249.459 56.9685 241.041 56.1693 L 241.524 29.0774 z"/>
<path transform="translate(0,0)" fill="rgb(254,254,254)" d="M 188.026 29.2179 L 214.513 29.0619 C 214.471 37.827 214.508 46.6424 214.037 55.3911 C 205.35 55.3699 196.375 55.6318 187.664 55.7742 L 188.026 29.2179 z"/>
<path transform="translate(0,0)" fill="rgb(254,254,254)" d="M 214.869 55.9682 L 241.041 56.1693 L 241.267 80.1801 C 232.494 79.9642 223.715 80.1216 214.955 80.6517 L 214.869 55.9682 z"/>
<path transform="translate(0,0)" fill="rgb(244,243,243)" d="M 405.579 29.5948 C 411.619 28.9707 422.486 29.2171 428.907 29.1935 C 429.168 38.789 429.198 48.3893 428.997 57.9862 C 422.534 58.4081 412.921 58.187 406.218 58.2389 C 405.531 48.19 405.526 39.6192 405.579 29.5948 z"/>
<path transform="translate(0,0)" fill="rgb(244,243,243)" d="M 0 29.1618 L 24.0689 29.016 L 24.0635 55.2847 C 15.8306 55.7761 8.23299 55.3932 0 55.0914 L 0 29.1618 z"/>
<path transform="translate(0,0)" fill="rgb(244,243,243)" d="M 400.99 0 L 403.239 0 C 403.327 8.65839 403.613 17.7891 402.709 26.3613 L 402.112 26.229 C 400.641 16.7545 400.898 9.62396 400.99 0 z"/>
<path transform="translate(0,0)" fill="rgb(254,254,254)" d="M 838.188 0 L 1008.13 0 L 1035.64 0 L 1059.89 0 L 1085.83 0 L 1111.78 0 L 1138.48 0 L 1146 0 L 1146 28.8883 L 1146 55.8695 L 1146 1014.3 C 1143.4 1008.66 1138.91 993.805 1136.74 987.253 C 1131.11 970.14 1125.38 953.061 1119.54 936.018 C 1105.1 893.99 1091.21 851.776 1077.87 809.386 C 1068.01 778.181 1056.87 742.786 1049.79 710.856 C 1040.97 671.019 1034.54 629.99 1026.17 589.954 C 1001.11 470.158 969.181 372.543 895.864 273.64 C 918.104 266.217 933.297 251.177 923.36 226.824 C 918.231 214.254 908.362 213.445 900.258 204.623 C 899.52 203.82 905.842 184.04 900.845 180.304 C 892.746 167.814 883.932 165.66 871.03 161.325 C 854.31 137.451 833.321 123.534 808.785 108.206 C 810.921 101.564 810.305 96.1814 810.268 89.1647 L 837.491 89.5655 L 837.355 60.0868 L 863.433 60.4229 C 863.44 50.2052 864.036 39.037 864.24 28.6817 L 837.49 28.6989 C 837.324 19.331 837.848 9.40933 838.188 0 z"/>
<path transform="translate(0,0)" fill="rgb(244,243,243)" d="M 1008.13 0 L 1035.64 0 L 1059.89 0 L 1085.83 0 L 1111.78 0 L 1138.48 0 L 1146 0 L 1146 28.8883 L 1137.96 28.9589 C 1130.48 29.4388 1119.26 29.0492 1111.5 29.0113 L 1111.53 57.0167 L 1085.78 56.82 L 1085.48 81.8787 C 1076.11 81.9015 1068.54 81.5234 1059.18 80.8649 C 1059.15 73.3385 1059.31 65.8124 1059.66 58.294 L 1032.87 55.0871 C 1033.53 46.5615 1033.56 37.6333 1033.71 29.0498 C 1025.17 28.9001 1016.62 28.8359 1008.07 28.8572 L 1008.13 0 z"/>
<path transform="translate(0,0)" fill="rgb(254,254,254)" d="M 1035.64 0 L 1059.89 0 C 1059.89 9.63425 1059.8 19.2683 1059.63 28.9011 L 1085.44 29.0657 C 1085.19 37.972 1085.13 47.0569 1084.97 55.9822 C 1077.35 55.896 1067.65 56.6496 1059.89 57.0509 C 1059.36 47.3623 1059.31 38.2037 1059.27 28.5216 L 1035.06 28.0259 C 1035.63 19.4335 1035.52 8.75503 1035.64 0 z"/>
<path transform="translate(0,0)" fill="rgb(254,254,254)" d="M 1085.83 0 L 1111.78 0 L 1111.72 28.7151 C 1103.22 28.9276 1094.33 28.731 1085.79 28.664 L 1085.83 0 z"/>
<path transform="translate(0,0)" fill="rgb(254,254,254)" d="M 1138.48 0 L 1146 0 L 1146 28.8883 L 1137.96 28.9589 L 1138.48 0 z"/>
<path transform="translate(0,0)" fill="rgb(244,243,243)" d="M 1137.96 28.9589 L 1146 28.8883 L 1146 55.8695 C 1141.23 55.8116 1139.79 55.2358 1137.78 59.7618 C 1138.32 62.5477 1138.81 63.5577 1137.48 66.1183 L 1137.76 66.1141 C 1135.85 63.3314 1138.09 60.8824 1136.82 57.8216 C 1136.2 56.3366 1132.55 57.8336 1129.2 56.2872 C 1131.94 55.9113 1134.14 55.7655 1136.88 55.6093 C 1138.33 52.8032 1137.94 33.0681 1137.96 28.9589 z"/>
<path transform="translate(0,0)" fill="rgb(254,254,254)" d="M 676.009 1090.86 C 678.006 1091.84 681.048 1092.83 681.665 1095.19 C 683.768 1103.24 684.915 1111.6 686.868 1119.67 C 689.679 1131.28 692.606 1143.22 696.277 1154.59 C 717.386 1219.97 736.593 1286.28 757.951 1351.55 C 765.991 1376.7 774.529 1401.7 783.561 1426.51 C 787.015 1435.81 805.659 1480.14 806.385 1486.65 C 771.166 1490.93 736.417 1489.69 701.234 1486.03 C 688.183 1484.67 670.194 1481.54 657.903 1480.85 C 653.52 1498.93 649.765 1542.42 650.269 1560.72 C 651.948 1621.69 626.555 1725.47 710.436 1740.92 C 756.339 1749.37 828.087 1750.37 861.534 1714.26 C 866.109 1733.81 870.005 1774.96 873.467 1797.36 C 882.665 1858.91 892.444 1920.37 902.802 1981.74 C 906.495 2003.21 909.923 2026.87 914.328 2048 L 588.033 2048 C 587.73 1979 585.631 1911.59 586.11 1841.9 C 587.157 1709.19 592.413 1576.53 601.869 1444.15 C 606.62 1376.14 612.601 1308.21 619.808 1240.42 C 624.437 1199.23 632.694 1147.64 635.347 1107.72 C 649.69 1103.84 662.857 1097.63 676.009 1090.86 z"/>
<path transform="translate(0,0)" fill="rgb(254,254,254)" d="M 449.385 1088.66 C 448.131 1080.81 446.531 1077.37 450.195 1070.18 C 471.909 1087.89 485.001 1095.9 511.796 1105.67 C 494.171 1222.4 480.834 1339.73 471.814 1457.44 C 453.867 1653.75 447.269 1850.93 452.052 2048 L 238.706 2048 C 239.734 2031.31 243.284 2006.7 245.261 1989.39 L 258.836 1872.66 C 272.294 1759.72 284.102 1648.32 312.748 1537.59 C 324.955 1490.41 341.783 1442.23 358.91 1396.56 L 416.985 1243.72 C 430.051 1209.96 447.623 1168.44 456.034 1133.38 C 458.616 1122.62 452.361 1099.66 449.385 1088.66 z"/>
<path transform="translate(0,0)" fill="rgb(254,254,254)" d="M 51.2972 998.642 C 67.4754 977.004 89.6726 897.27 97.4791 869.784 C 155.351 666.019 170.388 402.473 320.559 241.062 C 303.622 275.841 284.656 334.002 284.179 372.149 C 283.811 401.642 314.394 468.217 330.085 494.522 C 327.486 516.376 324.862 539.057 320.741 560.656 C 309.747 551.278 295.044 546.184 284.198 558.995 C 274.57 570.366 272.789 584.417 269.633 598.36 C 267.922 605.852 263.36 614.539 262.049 622.456 C 252.648 679.23 253.594 742.499 258.987 799.394 C 259.337 803.21 259.816 807.014 260.424 810.798 C 226.402 886.178 186.865 962.259 149.371 1035.98 C 127.983 1078.25 106.932 1120.69 86.2186 1163.29 C 71.3363 1192.77 56.7331 1222.4 42.4112 1252.16 C 32.728 1272.35 23.0183 1292.3 15.5218 1313.45 C 11.1328 1325.65 7.70061 1338.17 5.25637 1350.9 C 3.81939 1358.39 1.96196 1371.53 0 1378.36 L 0 1050.24 C 8.9876 1028.37 17.6295 1000.68 26.1338 977.904 C 44.6188 927.831 64.0668 878.119 84.4667 828.795 C 91.1071 812.466 101.592 783.826 108.979 768.885 C 97.703 810.46 87.9869 851.397 77.6753 893.17 C 69.012 928.267 58.5595 963.117 51.2972 998.642 z"/>
<path transform="translate(0,0)" fill="rgb(254,254,254)" d="M 521.052 1108.45 C 557.745 1118.78 589.666 1118.16 626.605 1110.25 C 597.501 1330.96 581.501 1553.2 578.689 1775.8 C 577.504 1839.53 577.407 1903.27 578.397 1967 C 578.841 1990.12 578.668 2025.62 580.695 2048 L 461.009 2048 C 459.323 1980.33 459.367 1912.63 461.139 1844.96 C 463.42 1718.98 470.266 1593.13 481.665 1467.66 C 491.118 1347.55 504.253 1227.76 521.052 1108.45 z"/>
<path transform="translate(0,0)" fill="rgb(146,209,247)" d="M 830.446 252.259 L 868.905 262.678 C 902.805 311.989 928.369 349.114 953.159 404.831 C 1007.63 527.263 1015.82 660.244 1050.32 787.442 C 1076.77 884.901 1116.25 978.946 1146 1076.42 L 1146 1383.54 L 1146 2048 L 1101.65 2048 L 1032.42 2048 C 1030.65 2014.32 1024.48 1969.57 1021.41 1934.55 C 1015.53 1869.17 1010.67 1803.71 1006.82 1738.17 C 1004.02 1698.36 1001.99 1658.5 1000.72 1618.61 C 1008.51 1616.51 1016.07 1613.63 1023.28 1610.02 C 1070.74 1586.28 1101.13 1532.82 1117.18 1484.29 C 1151.8 1379.63 1136.98 1266.35 1121.56 1159.61 C 1112.09 1094.02 1101.02 1027.53 1079.17 964.813 C 1073.56 948.701 1065.21 932.958 1057.57 917.69 C 1067.93 929.343 1077.28 940.095 1086.09 952.957 C 1093.62 963.951 1101.57 979.858 1109.93 989.799 C 1101.33 970.641 1092.09 948.827 1077.95 933.509 C 1074.92 930.227 1072.7 926.046 1070.52 922.143 C 1071.14 917.447 1062.88 892.108 1061.19 886.405 C 1055.58 867.849 1050.48 849.14 1045.9 830.3 C 1024.39 742.216 1003.33 633.376 970.908 548.98 C 957.682 515.521 942.185 483.005 924.524 451.659 C 917.921 439.9 901.283 410.889 891.428 402.903 C 887.203 390.155 883.374 374.529 879.517 361.358 C 867.038 318.747 854.495 289.788 830.446 252.259 z"/>
<path transform="translate(0,0)" fill="rgb(254,254,254)" d="M 1101.65 2048 C 1094.97 1923.41 1094.23 1798.57 1099.45 1673.9 C 1100.9 1642.6 1101.24 1609.24 1104.36 1578.17 C 1104.88 1573.06 1111.91 1556.98 1113.86 1549.64 C 1121.72 1520.58 1128.65 1491.28 1134.63 1461.77 C 1138.28 1444.42 1140.02 1427.85 1141.52 1410.21 C 1142.26 1401.44 1142.96 1391.82 1146 1383.54 L 1146 2048 L 1101.65 2048 z"/>
<path transform="translate(0,0)" fill="rgb(146,209,247)" d="M 59.5716 1574.34 C 121.343 1632.57 190.184 1606.34 243.194 1552.19 C 239.571 1609.01 232.422 1670.01 225.828 1726.8 L 203.771 1914.33 L 193.091 2002.02 C 191.5 2015.08 188.436 2035.26 187.709 2048 L 97.8049 2048 L 0 2048 L 0 1870.24 C 3.3784 1858.16 5.69503 1843.27 8.12469 1830.78 C 11.5727 1813.62 15.1576 1796.48 18.8791 1779.38 C 26.6909 1737.33 35.037 1695.39 43.9152 1653.56 C 48.1413 1633.32 57.0345 1593.89 59.5716 1574.34 z"/>
<path transform="translate(0,0)" fill="rgb(254,254,254)" d="M 68.8581 1611.89 C 88.3898 1638.42 108.084 1651.49 139.972 1660.81 C 136.918 1715.53 128.532 1773.9 122.371 1828.49 C 117.98 1867.4 113.732 1906.34 109.244 1945.23 L 101.196 2014.41 C 100.176 2023.53 97.9758 2039.5 97.8049 2048 L 0 2048 L 0 1870.24 C 3.3784 1858.16 5.69503 1843.27 8.12469 1830.78 C 11.5727 1813.62 15.1576 1796.48 18.8791 1779.38 C 23.6199 1773.82 34.1818 1730.85 36.7868 1721.42 C 46.5797 1684.66 57.2733 1648.13 68.8581 1611.89 z"/>
<path transform="translate(0,0)" fill="rgb(254,254,254)" d="M 337.719 237.308 C 459.446 203.665 700.567 222.156 823.14 250.496 C 850.044 298.621 870.143 370.605 888.118 423.366 C 892.888 437.368 895.927 451.977 901.203 466.451 C 898.391 441.908 896.433 427.304 891.428 402.903 C 901.283 410.889 917.921 439.9 924.524 451.659 C 942.185 483.005 957.682 515.521 970.908 548.98 C 1003.33 633.376 1024.39 742.216 1045.9 830.3 C 1050.48 849.14 1055.58 867.849 1061.19 886.405 C 1062.88 892.108 1071.14 917.447 1070.52 922.143 C 1050.41 897.444 1036.97 880.082 1014.68 856.664 C 982.245 822.592 923.259 780.808 902.772 741.38 C 906.597 697.731 912.815 650.652 894.186 609.994 C 887.973 596.433 893.593 595.273 880.625 583.188 C 880.844 551.081 878.627 519.004 873.994 487.233 C 864.653 421.537 837.977 302.179 783.784 258.809 C 729.493 219.89 674.002 281.664 622.218 289.594 C 580.932 295.917 574.394 265.168 570.343 234.344 C 565.619 247.626 564.63 253.905 564.836 267.778 C 509.637 315.113 459.051 212.853 401.45 235.893 C 359.121 252.824 319.711 308.912 300.173 348.554 C 307.858 309.259 321.505 273.663 337.719 237.308 z"/>
<path transform="translate(0,0)" fill="rgb(146,209,247)" d="M 881.716 1577.02 C 910.242 1604.72 939.428 1622.41 980.442 1621.83 C 982.01 1621.8 983.579 1621.77 985.147 1621.73 C 988.959 1715.74 994.913 1809.65 1003 1903.39 C 1005.64 1936.43 1008.71 1969.44 1012.2 2002.4 C 1013.41 2014.38 1014.99 2037.19 1017.01 2048 L 914.328 2048 C 909.923 2026.87 906.495 2003.21 902.802 1981.74 C 892.444 1920.37 882.665 1858.91 873.467 1797.36 C 870.005 1774.96 866.109 1733.81 861.534 1714.26 C 869.383 1704.44 875.221 1693.17 876.987 1680.7 C 881.689 1647.51 881.976 1610.51 881.716 1577.02 z"/>
<path transform="translate(0,0)" fill="rgb(146,209,247)" d="M 446.299 1086.35 L 449.385 1088.66 C 452.361 1099.66 458.616 1122.62 456.034 1133.38 C 447.623 1168.44 430.051 1209.96 416.985 1243.72 L 358.91 1396.56 C 341.783 1442.23 324.955 1490.41 312.748 1537.59 C 284.102 1648.32 272.294 1759.72 258.836 1872.66 L 245.261 1989.39 C 243.284 2006.7 239.734 2031.31 238.706 2048 L 202.729 2048 C 204.409 2027.01 208.053 2002.83 210.731 1981.55 L 223.262 1878.39 C 237.861 1762.47 250.491 1646.31 261.147 1529.96 C 325.496 1441.15 361.349 1314.81 402.205 1213.08 C 411.546 1189.82 446.133 1104.35 446.299 1086.35 z"/>
<path transform="translate(0,0)" fill="rgb(244,243,243)" d="M 593.847 0 L 621.266 0 L 646.816 0 L 674.29 0 L 699.51 0 L 728.06 0 L 754.5 0 L 783.187 0 L 808.689 0 L 838.188 0 C 837.848 9.40933 837.324 19.331 837.49 28.6989 L 864.24 28.6817 C 864.036 39.037 863.44 50.2052 863.433 60.4229 L 837.355 60.0868 L 837.491 89.5655 L 810.268 89.1647 C 810.305 96.1814 810.921 101.564 808.785 108.206 C 789.844 97.4156 771.122 89.4719 751.154 80.7791 L 727.505 72.4622 C 692.718 61.4837 656.806 54.4513 620.447 51.4973 C 611.717 51.0067 602.984 50.5998 594.246 50.2769 C 594.102 43.2536 594.003 36.2294 593.949 29.2048 C 593.319 22.1327 593.817 7.61567 593.847 0 z"/>
<path transform="translate(0,0)" fill="rgb(254,254,254)" d="M 728.06 0 L 754.5 0 L 754.539 28.7121 L 728.086 28.7063 L 728.06 0 z"/>
<path transform="translate(0,0)" fill="rgb(254,254,254)" d="M 783.187 0 L 808.689 0 C 808.709 9.5681 808.785 19.136 808.915 28.7032 L 782.991 28.7092 L 783.187 0 z"/>
<path transform="translate(0,0)" fill="rgb(254,254,254)" d="M 621.266 0 L 646.816 0 L 646.795 28.6978 L 621.279 28.7211 L 621.266 0 z"/>
<path transform="translate(0,0)" fill="rgb(254,254,254)" d="M 674.29 0 L 699.51 0 L 699.53 28.6726 L 674.298 28.6817 L 674.29 0 z"/>
<path transform="translate(0,0)" fill="rgb(254,254,254)" d="M 700.652 29.8305 C 709.384 29.5329 718.12 29.4194 726.856 29.4902 C 726.802 37.5437 726.362 50.2033 727.039 57.8695 C 718.893 57.4602 708.88 56.7051 700.876 56.8262 C 700.848 48.9146 701.163 37.4526 700.652 29.8305 z"/>
<path transform="translate(0,0)" fill="rgb(254,254,254)" d="M 593.949 29.2048 C 603.015 29.5858 611.599 29.5479 620.676 29.49 C 620.609 36.6939 620.671 44.3375 620.447 51.4973 C 611.717 51.0067 602.984 50.5998 594.246 50.2769 C 594.102 43.2536 594.003 36.2294 593.949 29.2048 z"/>
<path transform="translate(0,0)" fill="rgb(254,254,254)" d="M 727.039 57.8695 C 735.717 58.5908 745.145 58.2432 753.907 58.1026 C 753.94 63.8794 754.326 73.3608 753.249 78.7397 L 751.154 80.7791 L 727.505 72.4622 C 727.575 67.2304 727.382 63.0995 727.039 57.8695 z"/>
<path transform="translate(0,0)" fill="rgb(254,254,254)" d="M 755.435 29.49 L 781.885 29.486 C 781.946 38.7578 781.849 48.0301 781.594 57.2986 C 772.089 57.5395 764.705 57.5831 755.237 57.0489 C 755.199 47.8621 755.266 38.6752 755.435 29.49 z"/>
<path transform="translate(0,0)" fill="rgb(254,254,254)" d="M 811.778 29.4928 L 836.828 29.49 C 836.781 34.3936 837.245 54.9208 835.616 57.5365 L 810.175 57.51 C 810.113 51.9648 808.989 32.4169 811.778 29.4928 z"/>
<path transform="translate(0,0)" fill="rgb(244,243,243)" d="M 428.938 0 L 456.869 0 L 483.155 0 L 511.66 0 L 538.412 0 L 567.75 0 L 593.847 0 C 593.817 7.61567 593.319 22.1327 593.949 29.2048 C 594.003 36.2294 594.102 43.2536 594.246 50.2769 C 584.356 50.2341 575.624 50.3614 565.753 50.8585 C 557.765 51.3157 549.781 51.8467 541.802 52.4514 C 529.437 54.3316 515.306 55.6247 503.244 57.9794 C 478.692 62.7728 453.017 70.5058 429.75 79.7969 C 429.081 70.3788 428.535 67.7393 428.997 57.9862 C 429.198 48.3893 429.168 38.789 428.907 29.1935 C 428.33 21.0448 428.838 8.47942 428.938 0 z"/>
<path transform="translate(0,0)" fill="rgb(254,254,254)" d="M 511.66 0 L 538.412 0 C 538.354 9.8722 538.316 18.9903 538.818 28.8785 L 511.188 28.8753 C 511.15 19.4578 511.496 9.46383 511.66 0 z"/>
<path transform="translate(0,0)" fill="rgb(254,254,254)" d="M 456.869 0 L 483.155 0 L 483.169 29.006 L 456.289 29.0758 C 456.283 19.6096 456.673 9.51682 456.869 0 z"/>
<path transform="translate(0,0)" fill="rgb(254,254,254)" d="M 428.907 29.1935 C 437.862 29.3145 447.1 29.5631 456.026 29.2861 L 455.917 57.2256 L 428.997 57.9862 C 429.198 48.3893 429.168 38.789 428.907 29.1935 z"/>
<path transform="translate(0,0)" fill="rgb(254,254,254)" d="M 567.75 0 L 593.847 0 C 593.817 7.61567 593.319 22.1327 593.949 29.2048 C 587.996 28.6102 574.253 28.9566 567.722 28.9296 L 567.75 0 z"/>
<path transform="translate(0,0)" fill="rgb(254,254,254)" d="M 539.424 29.3616 C 548.165 29.0331 558.019 29.3096 566.85 29.372 C 566.9 34.2495 567.52 46.8781 565.753 50.8585 C 557.765 51.3157 549.781 51.8467 541.802 52.4514 L 539.868 50.9509 C 538.986 46.5207 539.376 34.4842 539.424 29.3616 z"/>
<path transform="translate(0,0)" fill="rgb(254,254,254)" d="M 0 1435.43 C 2.57607 1447.49 4.08737 1459.66 6.38028 1471.71 C 11.867 1500.55 27.457 1539.16 47.3404 1561.2 L 15.1814 1717.62 C 11.7674 1734.41 4.40175 1776.9 0 1790.53 L 0 1435.43 z"/>
<path transform="translate(0,0)" fill="rgb(146,209,247)" d="M 676.009 1090.86 L 693.028 1079.13 C 692.415 1098.81 700.059 1118.45 705.812 1137.23 L 730.882 1217.42 C 761.125 1313.78 780.354 1390.44 821.726 1484.6 C 816.733 1485.28 811.358 1486.12 806.385 1486.65 C 805.659 1480.14 787.015 1435.81 783.561 1426.51 C 774.529 1401.7 765.991 1376.7 757.951 1351.55 C 736.593 1286.28 717.386 1219.97 696.277 1154.59 C 692.606 1143.22 689.679 1131.28 686.868 1119.67 C 684.915 1111.6 683.768 1103.24 681.665 1095.19 C 681.048 1092.83 678.006 1091.84 676.009 1090.86 z"/>
<path transform="translate(0,0)" fill="rgb(146,209,247)" d="M 438.739 1058.23 L 450.195 1070.18 C 446.531 1077.37 448.131 1080.81 449.385 1088.66 L 446.299 1086.35 C 445.356 1079.06 440.966 1065.25 438.739 1058.23 z"/>
<path transform="translate(0,0)" fill="rgb(250,196,127)" d="M 370.371 273.573 C 379.641 262.996 398.303 250.23 412.505 247.462 C 433.408 243.388 467.825 265.384 484.936 277.542 C 515.623 294.571 540.366 306.157 569.734 278.254 C 599.024 325.186 644.121 296.54 680.845 281.076 C 701.396 269.415 734.507 254.818 758.09 261.577 C 797.255 272.802 827.909 343.874 836.835 379.042 C 819.585 445.91 802.923 525.903 821.987 593.294 C 816.835 602.881 814.181 610.306 810.84 620.697 C 767.242 633.562 768.701 745.233 752.706 781.145 C 745.144 798.125 737.037 812.624 726.684 828.034 C 720.918 838.185 715.425 848.489 710.211 858.935 C 704.137 872.419 699.388 883.862 695.28 898.197 C 693.854 903.173 690.131 922.818 688.301 925.889 C 672.386 952.605 640.586 980.226 612.067 990.333 C 576.811 1002.83 545.473 1002.51 511.866 987.971 C 480.892 974.044 461.243 948.489 447.65 918.147 C 446.36 915.267 445.166 912.626 443.483 909.942 C 444.917 918.336 446.127 922.945 448.603 931.119 L 443.972 931.988 C 441.155 907.482 429.896 880.868 419.239 858.85 C 417.848 855.975 416.341 850.566 414.006 849.092 C 408.35 841.039 396.389 817.689 391.129 808.026 C 364.009 761.104 371.44 707.053 362.529 655.744 C 359.323 637.279 353.71 622.469 339.673 609.502 C 339.673 609.502 339.183 606.239 339.134 605.916 C 338.82 594.48 336.524 586.217 332.892 575.534 L 332.319 574.95 C 331.985 570.94 337.509 542.744 338.394 536.284 C 339.433 528.696 340.823 518.06 341.742 510.041 C 345.618 474.521 349.069 438.957 352.096 403.355 C 353.717 385.606 355.735 355.853 359.622 339.2 C 360.301 328.754 367.748 283.632 370.371 273.573 z"/>
<path transform="translate(0,0)" fill="rgb(194,158,120)" d="M 493.776 675.843 C 531.504 708.087 575.994 708.289 616.049 679.877 C 630.2 679.987 637.864 680.124 651.399 684.224 C 654.605 685.196 664.292 688.305 666.97 688.712 C 699.308 725.395 710.087 766.7 709.999 815.337 C 711.395 815.9 711.549 816.163 712.921 816.132 L 711.702 825.363 L 710.827 838.751 C 709.896 844.032 707.14 854.571 710.211 858.935 C 704.137 872.419 699.388 883.862 695.28 898.197 C 693.854 903.173 690.131 922.818 688.301 925.889 C 672.386 952.605 640.586 980.226 612.067 990.333 C 576.811 1002.83 545.473 1002.51 511.866 987.971 C 480.892 974.044 461.243 948.489 447.65 918.147 C 446.36 915.267 445.166 912.626 443.483 909.942 C 444.917 918.336 446.127 922.945 448.603 931.119 L 443.972 931.988 C 441.155 907.482 429.896 880.868 419.239 858.85 C 417.848 855.975 416.341 850.566 414.006 849.092 C 414.081 842.475 414.011 839.595 413.108 832.898 L 414.278 831.922 C 414.817 831.436 415.752 830.32 415.707 829.557 C 412.704 778.44 422.068 729.655 456.14 688.776 C 460.009 688.829 489.726 677.917 493.776 675.843 z"/>
<path transform="translate(0,0)" fill="rgb(45,45,48)" d="M 709.999 815.337 C 711.395 815.9 711.549 816.163 712.921 816.132 L 711.702 825.363 L 710.965 825.88 C 709.618 823.753 710.006 818.216 709.999 815.337 z"/>
<path transform="translate(0,0)" fill="rgb(250,196,127)" d="M 529.544 722.61 C 547.49 717.784 549.512 719.635 567.457 722.023 C 625.691 710.607 664 774.791 671.949 824.13 C 678.221 863.066 676.157 900.429 654.915 934.835 C 646.756 948.05 612.62 972.702 599.249 958.662 C 600.475 957.504 600.929 957.648 602.625 957.423 C 589.868 945.118 549.056 943.281 532.782 948.436 C 512.33 956.074 500.208 957.628 483.315 940.949 C 461.208 919.122 449.435 878.872 449.472 848.439 C 449.545 788.259 471.367 742.967 529.544 722.61 z"/>
<path transform="translate(0,0)" fill="rgb(237,154,79)" d="M 529.544 722.61 C 547.49 717.784 549.512 719.635 567.457 722.023 C 551.679 728.545 543.355 723.471 529.544 722.61 z"/>
<path transform="translate(0,0)" fill="rgb(0,0,0)" d="M 553.367 733.26 C 560.645 732.742 568.003 732.738 575.21 734.012 C 597.795 738.003 616.302 752.783 629.173 771.264 C 652.817 805.213 663.535 857.313 656.2 897.948 C 653.866 910.879 649.111 925.42 637.725 933.108 C 620.236 944.916 597.167 927.909 577.699 924.242 C 548.07 917.793 534.245 927.192 507.293 931.754 C 500.734 932.864 494.023 933.124 488.424 929.091 C 477.272 921.056 473.398 905.423 471.206 892.529 C 464.614 853.756 473.014 802.281 496.197 769.893 C 510.48 749.938 529.022 737.247 553.367 733.26 z"/>
<path transform="translate(0,0)" fill="rgb(39,8,2)" d="M 544.095 778.53 C 567.143 774.703 600.91 778.997 624.456 781.784 C 642.625 810.568 649.543 844.44 648.758 878.142 C 641.361 863.011 631.609 846.311 616.524 837.817 C 610.27 834.295 596.962 829.776 589.946 832.547 C 586.92 833.743 581.844 837.005 578.724 836.922 C 565.411 836.568 564.61 832.305 549.572 836.5 C 545.066 838.153 540.515 840.437 536.453 843.009 C 508.213 860.89 499.202 889.095 492.266 919.91 C 487.767 912.402 484.032 904.902 481.77 896.434 C 472.324 861.062 483.017 812.231 501.06 780.968 C 515.314 781.191 529.876 779.537 544.095 778.53 z"/>
<path transform="translate(0,0)" fill="rgb(242,117,91)" d="M 570.87 858.893 C 575.97 850.859 581.807 845.613 591.299 843.723 C 622.12 837.586 638.285 871.553 646.921 894.346 C 642.84 912.494 634.942 936.709 611.318 924.502 C 579.653 908.72 552.526 908.904 519.723 918.657 C 514.149 920.86 506.78 924.458 501.651 921.068 C 499.495 916.961 501.69 907.505 502.89 903.051 C 508.659 881.947 521.743 861.988 540.704 850.59 C 547.922 846.252 567.063 839.845 572.313 849.666 C 573.127 852.888 571.277 855.42 569.696 858.382 L 570.87 858.893 z"/>
<path transform="translate(0,0)" fill="rgb(191,83,67)" d="M 570.87 858.893 C 575.97 850.859 581.807 845.613 591.299 843.723 C 622.12 837.586 638.285 871.553 646.921 894.346 C 642.84 912.494 634.942 936.709 611.318 924.502 C 619.059 920.803 619.817 919.371 624.033 911.707 C 624.41 898.08 623.352 884.99 614.062 874.151 C 600.696 858.558 581.888 858.552 566.721 871.227 C 568.063 867.102 569.446 862.99 570.87 858.893 z"/>
<path transform="translate(0,0)" fill="rgb(191,83,67)" d="M 519.723 918.657 C 514.149 920.86 506.78 924.458 501.651 921.068 C 499.495 916.961 501.69 907.505 502.89 903.051 C 508.659 881.947 521.743 861.988 540.704 850.59 C 547.922 846.252 567.063 839.845 572.313 849.666 C 573.127 852.888 571.277 855.42 569.696 858.382 L 570.87 858.893 C 569.446 862.99 568.063 867.102 566.721 871.227 L 565.025 873.216 L 564.945 872.065 C 562.816 865.508 560.226 864.839 554.022 861.601 C 539.483 864.248 533.208 867.462 523.702 880.181 C 518.046 887.748 509.152 911.832 519.723 918.657 z"/>
<path transform="translate(0,0)" fill="rgb(121,47,42)" d="M 564.945 872.065 C 565.093 867.832 567.807 862.071 569.696 858.382 L 570.87 858.893 C 569.446 862.99 568.063 867.102 566.721 871.227 L 565.025 873.216 L 564.945 872.065 z"/>
<path transform="translate(0,0)" fill="rgb(254,254,254)" d="M 552.095 744.219 C 556.775 743.891 561.707 743.617 566.384 743.984 C 588.883 745.746 606.005 758.12 620.078 774.769 L 575.606 774.122 C 552.952 774.179 529.479 775.408 506.964 773.126 C 507.141 772.834 507.315 772.539 507.496 772.249 C 517.418 756.333 534.411 748.074 552.095 744.219 z"/>
<path transform="translate(0,0)" fill="rgb(0,0,0)" d="M 555.694 948.419 C 556.565 948.39 557.436 948.373 558.307 948.367 C 573.394 948.294 587.481 955.619 598.055 965.983 C 587.173 961.583 576.778 958.429 565.237 956.177 C 549.43 954.993 536.088 958.347 521.257 963.457 C 531.842 953.343 541.331 949.698 555.694 948.419 z"/>
<path transform="translate(0,0)" fill="rgb(238,129,49)" d="M 680.845 281.076 C 701.396 269.415 734.507 254.818 758.09 261.577 C 797.255 272.802 827.909 343.874 836.835 379.042 C 819.585 445.91 802.923 525.903 821.987 593.294 C 816.835 602.881 814.181 610.306 810.84 620.697 C 767.242 633.562 768.701 745.233 752.706 781.145 C 745.144 798.125 737.037 812.624 726.684 828.034 C 726.072 820.231 726.556 816.401 728.301 808.818 C 728.641 807.682 733.054 797.506 733.939 795.402 C 739.619 781.896 743.419 771.364 747.545 757.236 C 758.809 718.655 756.964 670.729 779.914 636.947 C 783.027 632.365 791.909 625.251 796.15 621.05 C 802.068 615.185 801.105 612.623 801.087 604.341 C 787.576 580.807 780.339 575.504 752.879 576.574 L 752.225 575.321 C 750.723 577.388 749.198 579.439 747.652 581.472 C 744.129 581.554 739.668 585.202 736.456 587.372 C 733.75 584.406 731.339 582.234 728.362 579.538 C 725.448 582.829 722.206 586.675 719.139 589.75 C 683.271 624.541 633.367 617.297 613.352 569.638 C 608.188 557.341 606.816 544.069 604.073 531.076 C 600.174 526.013 599.411 513.564 598.567 506.946 C 594.964 478.365 598.33 449.336 608.377 422.338 C 612.104 412.168 618.236 398.989 621.072 389.017 L 621.367 387.958 C 640.827 365.734 677.748 333.445 708.446 332.191 C 756.458 330.23 780.293 390.318 792.153 425.764 C 792.106 413.849 790.46 406.755 789.407 395.363 C 795.243 370.767 777.021 318.458 757.894 300.792 C 735.105 279.744 709.296 280.677 680.845 281.076 z"/>
<path transform="translate(0,0)" fill="rgb(0,0,0)" d="M 604.073 531.076 C 602.842 484.852 610.986 439.122 642.858 403.724 C 665.705 378.349 704.387 371.983 729.066 397.874 C 773.765 444.77 764.834 531.409 728.362 579.538 C 725.448 582.829 722.206 586.675 719.139 589.75 C 683.271 624.541 633.367 617.297 613.352 569.638 C 608.188 557.341 606.816 544.069 604.073 531.076 z"/>
<path transform="translate(0,0)" fill="rgb(254,254,254)" d="M 679.726 394.209 C 691.475 393.036 702.269 393.992 712.605 400.257 C 730.647 411.192 740.11 432.382 745.08 452.097 C 754.524 489.561 748.315 532.221 728.324 565.322 C 716.416 585.041 699.761 598.372 677.224 603.894 C 665.253 605.72 653.676 603.744 643.041 597.888 C 627.282 589.212 617.869 573.988 612.969 557.126 C 601.824 518.777 610.868 471.22 629.916 436.782 C 641.332 416.142 656.628 400.856 679.726 394.209 z"/>
<path transform="translate(0,0)" fill="rgb(0,0,0)" d="M 658.237 471.103 C 662.651 470.898 666.408 470.788 670.524 472.565 C 677.805 475.706 682.835 481.874 685.712 489.136 C 691.16 502.888 690.337 519.451 684.482 532.92 C 679.73 543.854 672.964 551.382 661.867 555.837 C 657.906 555.942 654.496 555.761 650.813 554.165 C 643.141 550.841 637.921 544.635 634.861 536.962 C 629.429 523.337 630.487 506.174 636.242 492.812 C 640.759 482.326 647.649 475.302 658.237 471.103 z"/>
<path transform="translate(0,0)" fill="rgb(74,24,1)" d="M 659.614 476.9 C 689.656 475.624 688.997 527.167 672.048 542.776 C 657.627 556.057 640.692 545.779 638.245 528.367 C 635.543 512.197 637.736 492.13 650.479 481.675 L 659.614 476.9 z"/>
<path transform="translate(0,0)" fill="rgb(0,0,0)" d="M 660.344 488.623 C 666.218 491.495 666.68 492.475 667.918 498.851 L 668.191 498.692 C 676.963 509.492 663.731 556.089 647.146 524.567 C 647.093 523.436 647.054 522.305 647.032 521.173 C 646.89 513.545 648.12 501.453 653.651 495.711 L 654.351 494.576 C 655.899 492.581 658.448 490.389 660.344 488.623 z"/>
<path transform="translate(0,0)" fill="rgb(254,254,254)" d="M 660.344 488.623 C 666.218 491.495 666.68 492.475 667.918 498.851 C 666.194 502.099 665.897 502.861 662.869 505.229 C 659.174 506.074 660.685 506.233 657.195 504.566 C 654.577 501.599 654.457 499.59 653.651 495.711 L 654.351 494.576 C 655.899 492.581 658.448 490.389 660.344 488.623 z"/>
<path transform="translate(0,0)" fill="rgb(0,0,0)" d="M 401.648 536.807 L 401.487 536.336 C 384.895 486.382 401.195 398.036 458.359 380.075 C 471.721 375.765 486.265 377.119 498.601 383.822 C 523.302 397.094 533.204 423.431 540.613 448.632 C 549.986 483.634 544.441 526.9 532.003 560.496 C 564.479 555.549 588.455 559.405 612.046 583.61 C 584.506 569.339 559.274 564.128 528.695 573.108 C 498.693 581.918 476.468 611.233 486.83 642.916 C 488.048 646.639 490.856 652.774 493.343 655.794 C 495.11 656.571 499.478 659.971 501.339 661.224 C 510.38 667.309 517.861 671.081 528.766 672.952 C 548.315 676.33 568.398 671.655 584.446 659.992 C 597.38 650.613 608.054 635.115 610.702 619.225 C 599.239 623.861 586.801 631.047 575.914 634.814 C 595.496 620.741 623.762 590.115 637.531 627.916 C 640.789 640.711 638.57 650.651 631.699 662.046 C 627.532 668.834 622.24 674.864 616.049 679.877 C 575.994 708.289 531.504 708.087 493.776 675.843 C 489.726 677.917 460.009 688.829 456.14 688.776 C 422.068 729.655 412.704 778.44 415.707 829.557 C 415.752 830.32 414.817 831.436 414.278 831.922 C 411.727 822.269 410.378 801.873 410.008 791.883 C 409.681 759.153 416.357 731.283 434.811 704.198 C 442.28 693.236 474.438 650.787 472.429 637.878 C 470.55 624.505 472.428 613.928 477.759 601.73 C 436.629 604.818 411.697 572.968 401.648 536.807 z"/>
<path transform="translate(0,0)" fill="rgb(238,129,49)" d="M 610.702 619.225 L 611.524 618.923 C 621.043 615.48 625.456 621.361 627.524 629.917 C 634.603 659.191 602.374 678.547 578.903 684.76 C 547.908 692.965 510.512 683.976 493.343 655.794 C 495.11 656.571 499.478 659.971 501.339 661.224 C 510.38 667.309 517.861 671.081 528.766 672.952 C 548.315 676.33 568.398 671.655 584.446 659.992 C 597.38 650.613 608.054 635.115 610.702 619.225 z"/>
<path transform="translate(0,0)" fill="rgb(250,196,127)" d="M 472.754 643.171 C 479.077 657.937 481.936 664.049 493.776 675.843 C 489.726 677.917 460.009 688.829 456.14 688.776 C 464.878 673.126 470.524 660.997 472.754 643.171 z"/>
<path transform="translate(0,0)" fill="rgb(254,254,254)" d="M 473.295 390.405 C 479.14 390.568 484.192 391.169 489.699 393.219 C 506.453 399.455 517.543 413.398 524.629 429.297 C 542.426 469.235 540.107 522.051 524.727 562.328 C 506.652 569.392 492.83 579.125 481.168 594.662 L 469.393 596.348 C 457.141 594.595 447.024 590.322 437.578 582.158 C 416.724 564.133 407.16 535.387 405.108 508.613 C 402.571 475.537 410.257 437.058 432.429 411.371 C 443.558 398.478 456.378 391.684 473.295 390.405 z"/>
<path transform="translate(0,0)" fill="rgb(0,0,0)" d="M 490.247 465.213 C 493.807 465.033 496.978 465.051 500.332 466.412 C 508.132 469.578 513.39 476.493 516.455 484.113 C 522.279 498.592 522.253 516.596 515.886 530.89 C 511.507 540.72 505.568 546.345 495.582 550.079 C 491.766 550.103 488.261 549.572 484.75 548 C 476.49 544.301 471.063 536.508 468.077 528.207 C 463.024 514.159 463.409 496.606 470.002 483.113 C 474.486 473.938 480.669 468.463 490.247 465.213 z"/>
<path transform="translate(0,0)" fill="rgb(74,24,1)" d="M 487.922 471.977 C 517.333 465.264 520.713 520.028 508.777 533.7 C 477.57 569.448 457.681 497.784 480.627 477.158 L 487.922 471.977 z"/>
<path transform="translate(0,0)" fill="rgb(0,0,0)" d="M 491.942 484.688 C 495.687 486.961 496.337 487.319 499.145 490.689 C 501.015 495.334 503.296 495.225 504.626 497.795 C 508.991 506.234 508.69 523.511 498.211 527.699 C 495.686 528.721 492.843 528.617 490.399 527.413 C 478.207 521.388 482.525 502.311 483.735 492.002 L 484.976 491.992 C 486.549 488.029 488.524 486.625 491.942 484.688 z"/>
<path transform="translate(0,0)" fill="rgb(254,254,254)" d="M 491.942 484.688 C 495.687 486.961 496.337 487.319 499.145 490.689 C 497.845 496.296 496.862 502.186 489.751 501.116 C 486.313 498.504 485.846 496.225 484.976 491.992 C 486.549 488.029 488.524 486.625 491.942 484.688 z"/>
<path transform="translate(0,0)" fill="rgb(39,8,2)" d="M 480.627 477.158 L 487.922 471.977 C 488.757 474.878 490.566 482.533 491.942 484.688 C 488.524 486.625 486.549 488.029 484.976 491.992 L 483.735 492.002 C 485.206 487.958 482.316 481.217 480.627 477.158 z"/>
<path transform="translate(0,0)" fill="rgb(238,129,49)" d="M 378.652 414.207 L 379.193 415.061 C 381.425 413.552 384.849 398.711 386.306 394.747 C 396.078 366.957 416.678 330.356 447.958 323.377 C 473.81 317.61 504.463 349.493 517.867 368.767 C 521.313 373.722 529.304 392.643 533.31 394.848 C 537.812 406.994 541.781 436.149 540.613 448.632 C 533.204 423.431 523.302 397.094 498.601 383.822 C 486.265 377.119 471.721 375.765 458.359 380.075 C 401.195 398.036 384.895 486.382 401.487 536.336 L 401.648 536.807 C 381.53 523.671 373.061 436.768 378.652 414.207 z"/>
<path transform="translate(0,0)" fill="rgb(0,0,0)" d="M 612.626 395.313 C 628.246 328.119 705.43 238.147 764.833 328.87 C 776.125 346.116 785.24 375.144 789.407 395.363 C 790.46 406.755 792.106 413.849 792.153 425.764 C 780.293 390.318 756.458 330.23 708.446 332.191 C 677.748 333.445 640.827 365.734 621.367 387.958 C 618.669 390.272 615.406 393.226 612.626 395.313 z"/>
<path transform="translate(0,0)" fill="rgb(45,45,48)" d="M 711.471 312.068 C 717.763 311.668 724.816 312.579 730.602 315.145 C 743.488 320.859 750.481 330.927 755.505 343.6 C 750.443 339.391 745.357 335.59 739.837 331.999 C 721.205 321.755 705.802 323.739 685.814 327.789 C 693.704 320.184 701.492 316.161 711.471 312.068 z"/>
<path transform="translate(0,0)" fill="rgb(0,0,0)" d="M 378.652 414.207 C 381.56 377.905 389.161 345.119 408.756 314.141 C 424.662 288.993 453.494 271.888 480.822 291.017 C 510.026 311.459 526.888 361.311 533.31 394.848 C 529.304 392.643 521.313 373.722 517.867 368.767 C 504.463 349.493 473.81 317.61 447.958 323.377 C 416.678 330.356 396.078 366.957 386.306 394.747 C 384.849 398.711 381.425 413.552 379.193 415.061 L 378.652 414.207 z"/>
<path transform="translate(0,0)" fill="rgb(45,45,48)" d="M 443.152 304.092 C 445.042 303.917 446.938 303.81 448.836 303.899 C 458.006 304.324 463.053 310.338 468.871 316.586 C 458.49 313.308 451.419 313.898 441.061 316.548 C 434.558 318.68 429.116 324.086 422.59 325.536 C 422.558 324.77 422.506 324.59 422.731 323.74 C 425.066 314.928 435.781 308.47 443.152 304.092 z"/>
<path transform="translate(0,0)" fill="rgb(238,129,49)" d="M 637.531 627.916 C 645.138 635.692 651.372 648.397 659.081 657.22 C 689.08 691.55 726.592 714.84 725.352 765.738 C 725.01 779.758 721.826 795.37 714.091 807.152 C 713.85 810.293 713.786 813.101 712.921 816.132 C 711.549 816.163 711.395 815.9 709.999 815.337 C 710.087 766.7 699.308 725.395 666.97 688.712 C 664.292 688.305 654.605 685.196 651.399 684.224 C 637.864 680.124 630.2 679.987 616.049 679.877 C 622.24 674.864 627.532 668.834 631.699 662.046 C 638.57 650.651 640.789 640.711 637.531 627.916 z"/>
<path transform="translate(0,0)" fill="rgb(0,0,0)" d="M 666.97 688.712 C 654.88 671.17 651.849 665.405 645.709 645.243 C 658.593 663.622 670.991 678.76 684.943 696.111 C 710.53 727.931 713.593 767.63 714.091 807.152 C 713.85 810.293 713.786 813.101 712.921 816.132 C 711.549 816.163 711.395 815.9 709.999 815.337 C 710.087 766.7 699.308 725.395 666.97 688.712 z"/>
<path transform="translate(0,0)" fill="rgb(238,129,49)" d="M 370.371 273.573 C 379.641 262.996 398.303 250.23 412.505 247.462 C 433.408 243.388 467.825 265.384 484.936 277.542 C 476.643 276.345 470.623 271.635 463.286 269.788 C 419.406 258.741 384.579 297.159 364.642 331.048 C 363.263 333.393 361.218 337.359 359.622 339.2 C 360.301 328.754 367.748 283.632 370.371 273.573 z"/>
<path transform="translate(0,0)" fill="rgb(238,129,49)" d="M 339.134 605.916 L 343.005 606.902 C 350.044 608.084 355.249 610.443 359.219 616.956 C 379.126 649.612 376.998 697.708 382.651 734.65 C 385.881 755.76 390.838 783.059 397.815 802.17 C 395.289 803.987 392.758 805.449 391.129 808.026 C 364.009 761.104 371.44 707.053 362.529 655.744 C 359.323 637.279 353.71 622.469 339.673 609.502 C 339.673 609.502 339.183 606.239 339.134 605.916 z"/>
<path transform="translate(0,0)" fill="rgb(238,129,49)" d="M 472.429 637.878 C 474.438 650.787 442.28 693.236 434.811 704.198 C 416.357 731.283 409.681 759.153 410.008 791.883 C 403.398 785.851 402.529 767.988 402.638 759.153 C 403.089 722.44 428.694 695.489 449.365 667.798 C 454.957 660.307 466.004 643.854 472.429 637.878 z"/>
<path transform="translate(0,0)" fill="rgb(0,0,0)" d="M 747.652 581.472 C 749.198 579.439 750.723 577.388 752.225 575.321 L 752.879 576.574 C 745.602 606.761 705.229 630.713 675.804 622.683 C 669.616 620.995 666.337 619.276 663.219 613.505 L 663.881 612.494 C 666.662 613.465 669.184 614.602 671.825 615.635 C 698.445 626.046 733.743 604.6 747.652 581.472 z"/>
<path transform="translate(0,0)" fill="rgb(238,129,49)" d="M 397.815 802.17 C 402.487 812.858 409.359 824.119 413.108 832.898 C 414.011 839.595 414.081 842.475 414.006 849.092 C 408.35 841.039 396.389 817.689 391.129 808.026 C 392.758 805.449 395.289 803.987 397.815 802.17 z"/>
<path transform="translate(0,0)" fill="rgb(237,154,79)" d="M 710.827 838.751 C 719.04 827.983 721.687 820.299 728.301 808.818 C 726.556 816.401 726.072 820.231 726.684 828.034 C 720.918 838.185 715.425 848.489 710.211 858.935 C 707.14 854.571 709.896 844.032 710.827 838.751 z"/>
<path transform="translate(0,0)" fill="rgb(237,154,79)" d="M 332.892 575.534 C 342.864 581.691 346.398 596.067 343.005 606.902 L 339.134 605.916 C 338.82 594.48 336.524 586.217 332.892 575.534 z"/>
<path transform="translate(0,0)" fill="rgb(237,154,79)" d="M 728.362 579.538 C 731.339 582.234 733.75 584.406 736.456 587.372 C 729.877 590.758 727.775 592.609 720.851 590.315 L 719.817 589.965 C 719.591 589.894 719.365 589.822 719.139 589.75 C 722.206 586.675 725.448 582.829 728.362 579.538 z"/>
<path transform="translate(0,0)" fill="rgb(0,0,0)" d="M 392.743 562.744 C 396.533 565.98 400.182 576.349 403.028 581.061 C 406.644 587.049 410.852 592.588 415.877 597.469 C 432.3 613.423 441.088 610.504 461.54 610.22 L 461.947 611.273 L 459.967 613.178 C 452.339 616.088 445.743 617.523 437.597 616.01 C 422.801 613.264 410.121 602.401 401.899 590.232 C 397.313 583.446 391.148 571.153 392.743 562.744 z"/>
<path transform="translate(0,0)" fill="rgb(254,254,254)" d="M 874.904 875.991 C 920.531 869.386 972.3 861.294 1012.59 891.531 C 1025.27 901.156 1036.03 913.076 1044.31 926.672 C 1081.07 986.016 1098.58 1101.72 1108.37 1172.41 C 1125.27 1294.54 1142.45 1446.43 1065.59 1552.86 C 1047.31 1578.16 1017.98 1600.45 986.509 1604.99 C 960.539 1608.75 929.734 1598.5 909.395 1581.58 C 835.998 1520.5 802.527 1395.98 773.194 1307.68 C 768.968 1294.96 754.16 1246.59 752.589 1236.4 L 751.488 1234.23 L 723.639 1146.23 C 707.533 1095.91 694.922 1080.96 727.583 1033.86 L 737.923 1059.98 C 728.471 1068.03 715.442 1077.94 708.89 1088 C 723.186 1085.15 728.411 1081.55 740.397 1073.73 C 780.568 1045.27 831.197 996.545 864.735 960.487 C 872.364 977.259 926.736 1083.47 927.084 1089.84 C 928.193 1091.06 928.957 1091.92 930.22 1093.02 C 934.027 1099.04 937.966 1106.06 941.371 1112.4 C 979.179 1182.88 1023.8 1251.29 1047.07 1328.39 C 1053.37 1349.26 1057.04 1370.66 1061.35 1391.84 C 1067.07 1341.96 1050.16 1293.93 1030.48 1249.03 C 1063.18 1284.14 1070.88 1298.31 1089.33 1343.19 C 1085.91 1307.54 1067.09 1270.33 1042.53 1244.62 C 1032.31 1233.93 1022.41 1230.58 1014.96 1216.37 C 982.208 1153.94 945.712 1093.49 914.806 1030.08 C 913.47 1027.34 911.984 1024.02 912.046 1020.93 C 912.462 1005.47 916.943 989.361 920.339 974.294 C 914.657 977.226 909.113 1006.35 907.347 1014.03 C 899.874 1001.58 893.891 986.961 887.251 973.969 C 875.928 951.816 875.182 941.769 847.739 950.079 C 857.238 925.548 866.295 900.848 874.904 875.991 z"/>
<path transform="translate(0,0)" fill="rgb(146,209,247)" d="M 874.904 875.991 C 920.531 869.386 972.3 861.294 1012.59 891.531 C 1025.27 901.156 1036.03 913.076 1044.31 926.672 C 1081.07 986.016 1098.58 1101.72 1108.37 1172.41 C 1125.27 1294.54 1142.45 1446.43 1065.59 1552.86 C 1047.31 1578.16 1017.98 1600.45 986.509 1604.99 C 960.539 1608.75 929.734 1598.5 909.395 1581.58 C 835.998 1520.5 802.527 1395.98 773.194 1307.68 C 768.968 1294.96 754.16 1246.59 752.589 1236.4 L 751.488 1234.23 L 723.639 1146.23 C 707.533 1095.91 694.922 1080.96 727.583 1033.86 L 737.923 1059.98 C 728.471 1068.03 715.442 1077.94 708.89 1088 C 723.186 1085.15 728.411 1081.55 740.397 1073.73 C 780.568 1045.27 831.197 996.545 864.735 960.487 C 872.364 977.259 926.736 1083.47 927.084 1089.84 C 925.69 1092.91 924.624 1095.71 923.432 1098.86 C 922.868 1103.36 920.299 1111.96 920.447 1114.18 C 919.473 1117.45 909.331 1133.08 907.006 1136.38 C 894.955 1153.4 881.373 1169.29 866.43 1183.84 C 860.358 1189.78 854.019 1195.45 847.434 1200.82 C 834.077 1211.57 811.877 1225.32 805.744 1240.99 C 800.014 1255.62 813.243 1288.53 818.422 1303.3 C 830.916 1338.62 844.761 1373.44 859.926 1407.7 C 883.16 1459.96 928.517 1552.02 983.985 1572.83 C 999.285 1578.57 1015.36 1578.24 1030.21 1571.3 C 1059.89 1557.42 1076.01 1522.16 1086.39 1493.01 C 1099.62 1455.85 1106.78 1415.19 1108.45 1375.84 C 1112.81 1273.25 1079.02 1045.89 1035.17 954.251 C 1026.05 935.198 1011.96 910.184 990.731 902.936 C 982.479 900.118 974.195 900.71 966.387 904.559 C 941.15 916.997 928.99 949.63 920.339 974.294 C 914.657 977.226 909.113 1006.35 907.347 1014.03 C 899.874 1001.58 893.891 986.961 887.251 973.969 C 875.928 951.816 875.182 941.769 847.739 950.079 C 857.238 925.548 866.295 900.848 874.904 875.991 z"/>
<path transform="translate(0,0)" fill="rgb(254,254,254)" d="M 740.397 1073.73 C 780.568 1045.27 831.197 996.545 864.735 960.487 C 872.364 977.259 926.736 1083.47 927.084 1089.84 C 925.69 1092.91 924.624 1095.71 923.432 1098.86 C 915.822 1111.61 909.273 1123.79 900.416 1135.92 C 872.43 1174.24 836.407 1205.34 792.523 1223.53 C 780.837 1200.6 742.191 1097.47 740.397 1073.73 z"/>
<path transform="translate(0,0)" fill="rgb(45,45,48)" d="M 751.488 1234.23 C 763.08 1234.35 765.759 1234.29 776.847 1232.17 C 784.586 1230.69 811.342 1216.81 815.478 1216.58 C 811.559 1222.73 782.316 1232.87 773.985 1234.84 C 766.248 1236.67 760.395 1236.64 752.589 1236.4 L 751.488 1234.23 z"/>
<path transform="translate(0,0)" fill="rgb(86,151,190)" d="M 927.084 1089.84 C 928.193 1091.06 928.957 1091.92 930.22 1093.02 C 927.138 1099.62 923.861 1108.1 920.447 1114.18 C 920.299 1111.96 922.868 1103.36 923.432 1098.86 C 924.624 1095.71 925.69 1092.91 927.084 1089.84 z"/>
<path transform="translate(0,0)" fill="rgb(254,254,254)" d="M 218.408 1072.84 C 235.822 1114.49 252.209 1138.67 284.116 1170.31 L 282.723 1171.74 C 283.363 1174.12 283.912 1175.53 284.838 1177.81 L 290.689 1183.99 L 292.155 1181.62 L 296.05 1185.52 C 321.1 1206.11 348.029 1223.03 380.387 1229.18 C 365.406 1270.19 349.814 1310.97 333.617 1351.52 C 300.66 1434.24 229.152 1624.72 104.955 1585.2 C 91.0093 1580.76 73.2422 1568 63.8821 1556.53 C 50.0628 1542.9 37.7057 1519.9 30.9434 1501.92 C 10.1223 1445.72 8.69927 1384.17 26.9008 1327.06 C 32.4708 1309.74 40.1851 1293.49 47.7022 1276.95 L 49.4244 1277.96 C 48.7558 1280.49 48.1361 1281.96 48.546 1284.57 C 52.5176 1281.18 65.5481 1262.11 70.4598 1256.26 C 81.4406 1243.18 90.4967 1235.38 103.116 1224.05 C 77.2058 1270.27 53.4823 1320.09 53.6598 1374.13 C 61.8491 1346.38 68.8039 1321.02 81.322 1294.57 C 117.981 1217.11 168.046 1145.57 213.573 1073.08 L 215.027 1072.82 L 218.408 1072.84 z"/>
<path transform="translate(0,0)" fill="rgb(146,209,247)" d="M 292.155 1181.62 L 296.05 1185.52 C 321.1 1206.11 348.029 1223.03 380.387 1229.18 C 365.406 1270.19 349.814 1310.97 333.617 1351.52 C 300.66 1434.24 229.152 1624.72 104.955 1585.2 C 91.0093 1580.76 73.2422 1568 63.8821 1556.53 C 75.2127 1558.76 81.9559 1567.27 98.3101 1567.28 C 124.488 1567.28 149.175 1553.11 166.908 1535.13 C 229.577 1471.59 264.936 1385.34 299.716 1304.65 C 308.176 1284.85 321.87 1253.72 323.455 1233.02 C 324.842 1214.9 302.561 1196.65 290.689 1183.99 L 292.155 1181.62 z"/>
<path transform="translate(0,0)" fill="url(#Gradient1)" d="M 218.408 1072.84 C 235.822 1114.49 252.209 1138.67 284.116 1170.31 L 282.723 1171.74 C 283.363 1174.12 283.912 1175.53 284.838 1177.81 C 255.441 1153.65 226.076 1109.36 215.027 1072.82 L 218.408 1072.84 z"/>
<path transform="translate(0,0)" fill="rgb(254,254,254)" d="M 664.236 1491.48 C 713.058 1502.42 762.672 1503.16 812.265 1498.53 L 827.195 1496.61 C 842.619 1525.71 851.866 1542.51 873.393 1568.24 C 873.461 1603.4 877.228 1671.03 861.192 1700.25 C 839.707 1736.31 769.803 1738.81 733.726 1734.9 C 698.261 1731.07 665.155 1719.43 660.069 1679.56 C 656.755 1653.59 656.55 1628.04 657.436 1601.92 C 658.681 1565.24 659.931 1527.91 664.236 1491.48 z"/>
<path transform="translate(0,0)" fill="rgb(146,209,247)" d="M 812.265 1498.53 L 827.195 1496.61 C 842.619 1525.71 851.866 1542.51 873.393 1568.24 C 873.461 1603.4 877.228 1671.03 861.192 1700.25 C 858.621 1691.19 858.381 1676.36 856.87 1665.46 C 852.659 1633.99 850.045 1596.72 846.077 1565.9 C 846.038 1565.6 812.572 1498.93 812.265 1498.53 z"/>
<path transform="translate(0,0)" fill="rgb(250,196,127)" d="M 856.243 584.647 C 858.82 582.321 859.572 581.384 863.053 580.552 C 865.697 581.347 866.572 581.351 868.175 584.377 C 871.986 591.568 870.542 620.633 869.172 628.248 L 868.825 637.637 C 866.303 694.007 859.796 750.128 849.353 805.58 C 857.014 795.363 862.893 766.562 866.361 753.788 L 868.468 754.072 L 868.578 753.605 L 870.866 753.716 C 870.85 751.545 870.901 750.76 870.436 748.657 L 872.375 747.484 L 875.704 750.552 C 875.424 752.493 875.093 754.427 874.713 756.351 L 876.275 757.89 C 875.813 764.136 875.46 769.59 873.917 775.731 C 887.632 770.027 889.331 656.516 888.895 637.4 C 894.503 649.903 893.558 679.105 893.086 692.852 C 890.382 771.606 874.867 843.579 845.658 916.656 C 844.176 920.364 842.675 924.804 840.669 928.254 C 838.402 935.756 836.072 941.902 833.237 949.222 L 833.285 949.181 C 835.222 955.91 836.947 962.699 838.459 969.537 C 835.561 973.159 825.301 982.229 821.262 986.087 C 803.9 1002.9 785.984 1019.13 767.544 1034.76 C 762.493 1039.79 753.212 1047.18 747.519 1052 C 744.258 1045.33 738.448 1025.74 735.246 1021.43 C 724.013 1006.31 717.197 998.59 709.179 981.011 C 703.603 964.869 700.795 948.093 703.016 931.05 C 705.012 881.615 740.645 835.087 760.92 792.344 C 770.565 771.243 769.969 762.366 775.699 738.751 C 781.77 713.732 785.415 636.807 819.679 632.533 C 833.82 630.769 828.163 667.392 826.734 678.136 C 826.69 679.284 826.716 681.702 826.381 682.651 C 823.842 722.877 815.729 767.686 812.044 808.462 C 817.942 796.764 820.869 782.675 823.558 769.937 C 828.476 746.637 843.244 654.371 837.749 635.874 C 835.636 628.761 830.408 625.609 824.192 622.285 C 827.44 610.121 840.039 580.665 856.243 584.647 z"/>
<path transform="translate(0,0)" fill="rgb(238,129,49)" d="M 888.895 637.4 C 894.503 649.903 893.558 679.105 893.086 692.852 C 890.382 771.606 874.867 843.579 845.658 916.656 C 844.176 920.364 842.675 924.804 840.669 928.254 C 840.828 920.225 848.194 901.166 850.799 892.22 C 851.99 888.129 855.013 873.752 855.817 871.275 C 861.063 855.117 868.661 785.616 873.917 775.731 C 887.632 770.027 889.331 656.516 888.895 637.4 z"/>
<path transform="translate(0,0)" fill="rgb(238,129,49)" d="M 709.179 981.011 C 711.84 978.191 713.095 976.576 716.549 974.773 C 725.87 995.544 733.582 1004.29 754.502 1014.22 C 757.933 1031.37 760.935 1022.88 767.544 1034.76 C 762.493 1039.79 753.212 1047.18 747.519 1052 C 744.258 1045.33 738.448 1025.74 735.246 1021.43 C 724.013 1006.31 717.197 998.59 709.179 981.011 z"/>
<path transform="translate(0,0)" fill="rgb(254,204,135)" d="M 856.243 584.647 C 858.82 582.321 859.572 581.384 863.053 580.552 C 865.697 581.347 866.572 581.351 868.175 584.377 C 871.986 591.568 870.542 620.633 869.172 628.248 L 868.825 637.637 L 868.116 637.841 C 864.407 639.462 862.103 640.107 859.451 637.028 L 859.81 633.892 C 852.158 628.648 853.746 608.144 855.772 599.959 C 856.859 595.571 856.413 595.658 860.066 593.512 C 864.484 594.75 861.194 596.863 865.222 597.873 C 864.406 592.758 859.728 588.37 856.243 584.647 z"/>
<path transform="translate(0,0)" fill="rgb(238,129,49)" d="M 856.243 584.647 C 858.82 582.321 859.572 581.384 863.053 580.552 C 865.697 581.347 866.572 581.351 868.175 584.377 C 871.986 591.568 870.542 620.633 869.172 628.248 C 869.208 616.17 868.603 609.506 865.222 597.873 C 864.406 592.758 859.728 588.37 856.243 584.647 z"/>
<path transform="translate(0,0)" fill="rgb(237,154,79)" d="M 859.81 633.892 C 852.158 628.648 853.746 608.144 855.772 599.959 C 856.859 595.571 856.413 595.658 860.066 593.512 C 858.265 603.979 853.001 626.812 865.407 631.054 C 865.713 633.118 866.015 632.449 865.307 633.884 L 859.81 633.892 z"/>
<path transform="translate(0,0)" fill="rgb(237,154,79)" d="M 703.016 931.05 C 704.928 931.98 706.536 932.383 707.042 934.892 C 709.938 949.252 712.184 960.784 716.549 974.773 C 713.095 976.576 711.84 978.191 709.179 981.011 C 703.603 964.869 700.795 948.093 703.016 931.05 z"/>
<path transform="translate(0,0)" fill="rgb(194,158,120)" d="M 826.381 682.651 L 825.881 681.744 C 824.597 681.098 823.336 680.405 822.102 679.668 C 809.183 672.047 816.739 649.772 822.672 639.743 C 819.165 650.282 810.46 675.229 826.734 678.136 C 826.69 679.284 826.716 681.702 826.381 682.651 z"/>
<path transform="translate(0,0)" fill="rgb(250,196,127)" d="M 298.402 565.779 C 320.467 566.467 324.5 590.773 326.7 608.442 C 315.945 608.712 316.052 610.159 308.26 617.635 C 296.098 655.13 304.351 762.773 316.73 802.34 C 315.465 778.14 304.194 636.026 317.941 621.781 C 320.019 619.628 322.57 618.876 325.483 619.031 C 326.393 619.08 327.287 619.189 328.186 619.332 C 337.849 624.106 343.459 631.147 346.343 641.635 C 358.568 685.922 353.591 732.597 365.476 777.312 C 373.207 806.399 389.634 832.103 404.189 859.157 C 430.233 907.568 448.449 969.033 408.102 1015.54 C 405.918 1018.06 398.423 1022.74 397.669 1025.47 L 400.501 1025.25 C 400.226 1028.51 389.381 1052.04 387.2 1056.33 C 376.69 1048.23 359.98 1032.6 350.908 1022.53 C 335.557 1007.58 318.055 985.938 304.765 969.436 L 308.691 954.397 L 311.566 952.973 C 310.08 946.531 304.132 930.052 301.904 923.215 C 295.578 904.221 289.869 885.028 284.784 865.664 C 267.83 800.008 264.692 731.727 269.115 664.122 C 269.865 652.667 272.171 631.017 274.987 620.544 C 276.562 667.474 270.934 714.686 279.544 761.399 C 281.906 774.216 283.558 788.686 288.319 800.782 C 282.067 731.972 279.976 665.803 285.72 596.826 C 286.751 584.44 287.828 573.537 298.402 565.779 z"/>
<path transform="translate(0,0)" fill="rgb(238,129,49)" d="M 328.186 619.332 C 337.849 624.106 343.459 631.147 346.343 641.635 C 358.568 685.922 353.591 732.597 365.476 777.312 C 373.207 806.399 389.634 832.103 404.189 859.157 C 430.233 907.568 448.449 969.033 408.102 1015.54 C 405.918 1018.06 398.423 1022.74 397.669 1025.47 L 400.501 1025.25 C 400.226 1028.51 389.381 1052.04 387.2 1056.33 C 376.69 1048.23 359.98 1032.6 350.908 1022.53 C 357.307 1024.29 363.716 1026 370.135 1027.68 C 385.026 1002.94 402.977 1003.2 412.098 970.133 C 433.164 893.756 377.267 840.175 355.834 774.525 C 340.087 726.292 355.464 667.604 328.186 619.332 z"/>
<path transform="translate(0,0)" fill="rgb(238,129,49)" d="M 298.402 565.779 C 320.467 566.467 324.5 590.773 326.7 608.442 C 315.945 608.712 316.052 610.159 308.26 617.635 C 317.166 597.907 310.356 582.049 298.402 565.779 z"/>
<path transform="translate(0,0)" fill="rgb(237,154,79)" d="M 322.264 631.705 C 323.026 632.184 323.507 632.801 323.935 633.589 C 327.231 639.65 324.935 650.773 323.346 657.09 C 321.919 655.47 322.921 636.097 322.264 631.705 z"/>
<path transform="translate(0,0)" fill="rgb(146,109,63)" d="M 297.428 572.701 L 298.212 573.443 C 299.197 578.979 295.943 588.206 294.459 593.71 L 294.279 593.775 C 294.071 586.368 293.998 579.498 297.428 572.701 z"/>
<path transform="translate(0,0)" fill="rgb(254,254,254)" d="M 280.492 952.182 C 297.898 991.571 357.408 1051.29 391.853 1076.75 C 402.662 1083.65 411.83 1091.15 424.839 1091.32 L 426.876 1090.36 C 426.16 1085.36 403.263 1070.54 397.597 1065.19 C 402.58 1053.63 407.872 1041.59 412.396 1029.88 C 421.911 1049.19 437.181 1079.82 429.034 1100.97 C 413.708 1140.75 398.852 1184.37 382.195 1223.34 C 371.202 1221.6 345.627 1214.37 337.016 1207.64 C 322.927 1200.79 309.606 1191.03 297.121 1181.63 L 296.05 1185.52 L 292.155 1181.62 L 290.689 1183.99 L 284.838 1177.81 C 283.912 1175.53 283.363 1174.12 282.723 1171.74 L 284.116 1170.31 C 252.209 1138.67 235.822 1114.49 218.408 1072.84 C 217.862 1070.84 217.073 1067.9 217.938 1066.04 C 224.234 1052.48 232.876 1038.07 240.033 1025.09 C 252.367 1002.73 264.171 980.063 276.887 958.003 C 278.036 956.031 279.238 954.089 280.492 952.182 z"/>
<path transform="translate(0,0)" fill="rgb(146,209,247)" d="M 412.396 1029.88 C 421.911 1049.19 437.181 1079.82 429.034 1100.97 C 413.708 1140.75 398.852 1184.37 382.195 1223.34 C 371.202 1221.6 345.627 1214.37 337.016 1207.64 C 340.453 1204.28 345.76 1197.66 348.313 1192.76 C 365.331 1160.11 384.456 1122.17 393.007 1086.29 C 393.634 1083.67 392.486 1079.17 391.853 1076.75 C 402.662 1083.65 411.83 1091.15 424.839 1091.32 L 426.876 1090.36 C 426.16 1085.36 403.263 1070.54 397.597 1065.19 C 402.58 1053.63 407.872 1041.59 412.396 1029.88 z"/>
<path transform="translate(0,0)" fill="rgb(69,108,138)" d="M 284.838 1177.81 C 283.912 1175.53 283.363 1174.12 282.723 1171.74 L 284.116 1170.31 L 288.34 1174.4 C 288.926 1178.85 288.905 1177.68 292.155 1181.62 L 290.689 1183.99 L 284.838 1177.81 z"/>
<path transform="translate(0,0)" fill="rgb(45,45,48)" d="M 288.34 1174.4 L 297.121 1181.63 L 296.05 1185.52 L 292.155 1181.62 C 288.905 1177.68 288.926 1178.85 288.34 1174.4 z"/>
<path transform="translate(0,0)" fill="rgb(45,45,48)" d="M 294.753 246.126 C 284.486 242.437 269.841 234.163 273.242 221.85 C 280.535 195.449 334.839 185.83 356.783 181.956 C 479.029 160.372 606.993 164.996 729.781 179.864 C 750.652 182.392 780.45 186.183 800.371 191.596 C 820.564 214.197 794.847 217.369 782.546 224.992 C 632.22 202.435 474.567 190.629 324.773 223.541 C 319.472 224.706 300.034 230.883 297.526 235.231 L 300.466 239.973 C 299.716 243.54 298.578 243.273 294.753 246.126 z"/>
<path transform="translate(0,0)" fill="rgb(254,254,254)" d="M 365.444 134.738 C 379.909 123.552 395.45 113.832 411.838 105.72 C 501.508 61.7784 620.74 54.4477 715.233 86.5941 C 760.234 98.0537 810.08 124.046 844.54 154.931 C 829.374 151.187 814.133 147.754 798.827 144.635 C 795.004 143.865 775.772 140.452 773.219 139.573 C 628.612 114.94 509.919 112.309 365.444 134.738 z"/>
<path transform="translate(0,0)" fill="rgb(146,209,247)" d="M 715.233 86.5941 C 760.234 98.0537 810.08 124.046 844.54 154.931 C 829.374 151.187 814.133 147.754 798.827 144.635 C 795.004 143.865 775.772 140.452 773.219 139.573 C 774.431 138.812 773.877 139.292 774.525 137.65 C 749.774 107.407 742.709 107.452 715.233 86.5941 z"/>
<path transform="translate(0,0)" fill="rgb(254,254,254)" d="M 526.834 1009.17 C 584.398 1020.62 644.16 1010.95 695.173 981.924 C 702.26 1000.71 706.505 1007.14 719.913 1022.25 C 698.466 1050.73 706.859 1060.07 672.439 1078.49 C 669.954 1080.05 667.422 1081.54 664.847 1082.94 C 622.082 1106.04 567.351 1109.33 521.081 1095.64 C 518.618 1069.62 521.539 1045.16 525.02 1019.47 L 526.834 1009.17 z"/>
<path transform="translate(0,0)" fill="rgb(146,209,247)" d="M 526.834 1009.17 C 584.398 1020.62 644.16 1010.95 695.173 981.924 C 702.26 1000.71 706.505 1007.14 719.913 1022.25 C 698.466 1050.73 706.859 1060.07 672.439 1078.49 C 681.423 1059.96 692.173 1028.09 661.481 1023.67 C 646.913 1021.57 631.739 1025 617.09 1024.99 C 586.193 1024.95 555.569 1024.6 525.02 1019.47 L 526.834 1009.17 z"/>
<path transform="translate(0,0)" fill="rgb(146,209,247)" d="M 76.063 1217.82 C 116.244 1139.63 150.991 1058.14 193.345 980.844 C 205.953 957.834 216.208 932.91 228.741 909.871 C 237.104 894.498 259.624 886.421 275.585 882.282 C 281.332 901.869 287.359 921.373 293.663 940.788 C 274.575 935.383 272.392 938.649 262.39 956.003 C 256.788 965.722 251.366 975.744 245.719 985.451 C 246.1 968.254 247.599 944.922 242.356 928.818 C 241.943 946.145 239.127 971.751 235.343 989.19 C 229.53 1038.75 160.869 1122.54 136.311 1168.33 C 132.945 1174.6 123.247 1190.1 118.894 1196.04 C 116.426 1199.37 113.514 1202.36 110.237 1204.9 C 96.91 1215.48 90.9526 1218.73 79.2902 1231.77 C 78.5799 1227.41 81.1873 1223.51 83.19 1219.61 C 81.2724 1219.29 78.0587 1218.34 76.063 1217.82 z"/>
<path transform="translate(0,0)" fill="rgb(254,254,254)" d="M 83.19 1219.61 C 98.6462 1195.09 227.204 992.252 235.343 989.19 C 229.53 1038.75 160.869 1122.54 136.311 1168.33 C 132.945 1174.6 123.247 1190.1 118.894 1196.04 C 116.426 1199.37 113.514 1202.36 110.237 1204.9 C 96.91 1215.48 90.9526 1218.73 79.2902 1231.77 C 78.5799 1227.41 81.1873 1223.51 83.19 1219.61 z"/>
<path transform="translate(0,0)" fill="rgb(45,45,48)" d="M 791.622 176.304 C 689.489 158.535 582.592 151.074 478.988 156.179 C 433.491 158.421 388.884 163.058 344.045 171.185 C 339.167 172.069 303.023 180.917 301.284 180.385 C 297.834 174.279 307.912 163.936 313.357 161.628 C 328.623 155.156 346.155 151.512 362.469 148.467 C 480.764 126.388 603.112 128.491 722.002 144.733 C 739.054 147.074 779.155 152.21 794.487 157.411 C 797.426 161.576 799.081 163.965 801.407 168.465 C 798.202 171.203 795.125 173.948 791.622 176.304 z"/>
<path transform="translate(0,0)" fill="rgb(254,254,254)" d="M 443.606 970.028 C 462.278 983.141 495.94 997.618 517.825 1006.18 L 515.589 1016.72 C 511.762 1041.86 510.346 1067.32 511.362 1092.73 C 488.543 1083.44 474.942 1076.38 456.572 1059.61 C 442.035 1047.16 432.677 1032.93 423.734 1016.25 C 436.184 999.517 439.96 990.439 443.606 970.028 z"/>
<path transform="translate(0,0)" fill="rgb(146,209,247)" d="M 443.606 970.028 C 462.278 983.141 495.94 997.618 517.825 1006.18 L 515.589 1016.72 C 507.576 1011.62 492.922 1008.36 483.925 1004.25 C 476.873 1001.03 460.9 991.433 456.06 1002.47 C 446.538 1024.19 451.337 1038.65 456.572 1059.61 C 442.035 1047.16 432.677 1032.93 423.734 1016.25 C 436.184 999.517 439.96 990.439 443.606 970.028 z"/>
<path transform="translate(0,0)" fill="rgb(146,209,247)" d="M 353.651 288.865 C 353.703 289.13 345.555 332.479 344.72 338.382 C 337.398 390.166 334.372 442.591 330.139 494.686 C 327.501 485.959 325.037 476.185 322.371 467.174 C 314.963 447.49 298.818 395.138 297.66 375.788 C 296.141 350.392 335.717 307.15 353.651 288.865 z"/>
<path transform="translate(0,0)" fill="rgb(146,209,247)" d="M 900.423 765.401 C 923.289 794.609 951.099 817.706 978.633 842.375 C 973.549 849.01 976.449 852.251 973.21 857.664 C 937.383 851.101 915.288 855.057 879.865 860.38 C 890.686 823.133 894.427 803.795 900.423 765.401 z"/>
<path transform="translate(0,0)" fill="rgb(6,17,38)" d="M 800.371 191.596 C 821.308 195.584 911.703 213.291 909.672 243.175 C 909.184 250.36 892.499 268.974 885.172 250.838 C 856.049 237.553 813.107 232.941 782.546 224.992 C 794.847 217.369 820.564 214.197 800.371 191.596 z"/>
<path transform="translate(0,0)" fill="rgb(6,17,38)" d="M 842.57 402.823 C 850.639 411.345 861.818 493.057 863.713 509.421 C 849.1 515.74 840.94 525.754 831.897 538.28 C 828.599 542.914 826.464 548.214 824.15 553.382 C 823.69 496.461 830.282 457.958 842.57 402.823 z"/>
<path transform="translate(0,0)" fill="rgb(6,17,38)" d="M 794.487 157.411 C 819.173 160.4 865.19 170.537 885.541 185.669 C 888.812 188.102 887.446 195.648 884.829 198.664 C 881.22 198.933 861.531 192.091 856.206 190.588 C 834.963 184.621 813.401 179.852 791.622 176.304 C 795.125 173.948 798.202 171.203 801.407 168.465 C 799.081 163.965 797.426 161.576 794.487 157.411 z"/>
<path transform="translate(0,0)" fill="rgb(238,129,49)" d="M 864.482 521.916 C 867.843 527.067 867.727 557.069 868.06 565.286 C 851.677 569.167 839.938 573.626 827.892 585.833 C 826.955 585.051 826.42 584.029 825.891 582.934 C 823.776 578.555 825.943 572.213 827.511 567.922 C 833.995 550.175 847.062 530.196 864.482 521.916 z"/>
<path transform="translate(0,0)" fill="rgb(238,129,49)" d="M 866.361 753.788 C 874.891 699.873 877.367 661.641 878.503 606.883 C 880.822 611.779 886.908 624.467 886.974 630.699 C 887.416 672.132 883.479 715.902 876.75 756.903 C 876.592 757.232 876.433 757.561 876.275 757.89 L 874.713 756.351 C 875.093 754.427 875.424 752.493 875.704 750.552 L 872.375 747.484 L 870.436 748.657 C 870.901 750.76 870.85 751.545 870.866 753.716 L 868.578 753.605 L 868.468 754.072 L 866.361 753.788 z"/>
<path transform="translate(0,0)" fill="rgb(238,129,49)" d="M 688.492 929.708 C 690.581 937.933 689.463 957.345 691.656 969.483 C 674.346 978.803 657.21 986.632 638.231 991.882 L 636.019 991.924 C 636.639 990.144 658.701 972.796 662.513 968.9 C 673.834 957.329 681.948 944.451 688.492 929.708 z"/>
<path transform="translate(0,0)" fill="rgb(146,209,247)" d="M 264.388 834.726 C 266.306 845.622 269.054 856.449 271.476 867.247 C 263.7 868.748 256.583 871.635 249.243 874.527 C 247.645 875.277 247.144 875.673 245.353 875.489 C 250.69 861.674 258.209 848.245 264.388 834.726 z"/>
<path transform="translate(0,0)" fill="rgb(238,129,49)" d="M 443.972 931.988 L 448.603 931.119 C 454.963 947.975 461.909 957.398 472.3 971.802 C 462.558 966.71 453.806 961.496 445.097 954.791 C 445.07 946.254 444.822 940.473 443.972 931.988 z"/>
<path transform="translate(0,0)" fill="rgb(146,209,247)" d="M 978.633 842.375 C 988.864 851.693 1000.1 861.587 1009.62 871.538 C 997.86 865.584 986.156 860.512 973.21 857.664 C 976.449 852.251 973.549 849.01 978.633 842.375 z"/>
<path transform="translate(0,0)" fill="rgb(146,209,247)" d="M 76.063 1217.82 C 78.0587 1218.34 81.2724 1219.29 83.19 1219.61 C 81.1873 1223.51 78.5799 1227.41 79.2902 1231.77 C 72.2386 1240.48 63.2495 1252.64 57.1698 1262.24 L 55.3561 1261.53 C 61.7846 1246.33 68.6835 1232.61 76.063 1217.82 z"/>
<path transform="translate(0,0)" fill="rgb(166,181,186)" d="M 47.7022 1276.95 C 50.1499 1271.55 52.2633 1266.63 55.3561 1261.53 L 57.1698 1262.24 C 54.9048 1266.66 51.1155 1273.53 49.4244 1277.96 L 47.7022 1276.95 z"/>
</svg>