<svg version="1.1" xmlns="http://www.w3.org/2000/svg" style="display: block;" viewBox="0 0 1146 2048" width="752" height="1344" preserveAspectRatio="none">
<defs>
	<linearGradient id="Gradient1" gradientUnits="userSpaceOnUse" x1="808.679" y1="1402.5" x2="841.713" y2="1391.7">
		<stop class="stop0" offset="0" stop-opacity="1" stop-color="rgb(163,201,237)"/>
		<stop class="stop1" offset="1" stop-opacity="1" stop-color="rgb(198,233,251)"/>
	</linearGradient>
	<linearGradient id="Gradient2" gradientUnits="userSpaceOnUse" x1="760.405" y1="1337.28" x2="730.926" y2="1346.6">
		<stop class="stop0" offset="0" stop-opacity="1" stop-color="rgb(220,117,44)"/>
		<stop class="stop1" offset="1" stop-opacity="1" stop-color="rgb(243,152,77)"/>
	</linearGradient>
</defs>
<path transform="translate(0,0)" fill="rgb(0,0,0)" d="M 0 0 L 1146 0 L 1146 858.895 L 1146 911.639 L 1146 1350.35 L 1146 1402.53 L 1146 1462.73 L 1146 1498.47 L 1146 2048 L 1010.17 2048 L 996.155 2048 L 868.792 2048 L 124.665 2048 L 110.565 2048 L 0 2048 L 0 1648.81 L 0 1626.91 L 0 1612.56 L 0 1326.5 L 0 1280.36 L 0 0 z"/>
<path transform="translate(0,0)" fill="rgb(253,253,253)" d="M 0 0 L 1146 0 L 1146 858.895 C 1136.1 838.329 1128.93 814.842 1119.2 793.657 C 1100.61 752.511 1081.82 711.481 1064.29 669.879 C 1042.27 617.615 1033.97 562.357 1021.35 507.426 C 1000.63 417.229 967.94 332.367 910.818 258.664 C 960.062 242.005 957.034 209.612 915.164 185.508 C 920.592 177.257 925.046 168.488 922.422 158.5 C 914.982 130.175 875.02 126.994 852.12 126.791 C 741.459 44.6974 569.976 29.0886 451.401 103.049 C 421.03 103.112 355.128 105.741 367.748 153.33 C 351.888 160.584 336.446 169.391 330.128 186.63 C 321.612 209.866 335.018 225.14 354.487 235.037 C 277.914 317.432 236.899 402.71 201.706 508.108 C 191.725 537.996 181.384 573.442 169.681 602.023 C 155.326 637.081 138.603 672.772 123.658 708.039 C 70.7641 832.858 7.04224 1003.31 12.1356 1140.62 C 12.9462 1167.21 16.0244 1193.69 21.3366 1219.77 C 15.9474 1233.84 4.94983 1269.73 0 1280.36 L 0 0 z"/>
<path transform="translate(0,0)" fill="rgb(253,253,253)" d="M 146.198 1744.39 C 151.82 1743.63 159.593 1745.34 165.403 1745.83 C 223.282 1750.68 282.889 1742.68 340.168 1735.08 C 388.143 1728.86 435.889 1720.98 483.321 1711.47 C 496.578 1716.84 509.638 1722.96 522.697 1728.51 C 620.339 1770.03 729.533 1787.12 833.261 1758.57 C 840.081 1756.69 846.974 1754.77 853.845 1752.91 C 855.035 1815.86 859.125 1884.14 862.72 1947.3 L 866.606 2013.77 C 867.192 2023.58 867.642 2038.68 868.792 2048 L 124.665 2048 C 129.196 1945.25 139.172 1846.22 146.198 1744.39 z"/>
<path transform="translate(0,0)" fill="rgb(253,253,253)" d="M 158.098 972.694 C 176.273 969.155 191.985 944.481 200.386 989.627 C 204.709 1012.86 209.519 1061.41 207.358 1084.06 C 202.921 1130.59 189.519 1264.38 156.911 1296.7 C 155.208 1298.02 153.247 1299.64 151.504 1300.85 C 145.426 1290.46 139.714 1283.44 132.365 1273.96 C 128.629 1269.69 124.77 1265.15 120.965 1260.98 C 124.706 1270.17 128.381 1277.93 132.725 1286.87 C 134.753 1306.2 136.094 1326.48 123.435 1343.4 C 113.955 1356.07 79.1664 1368.09 71.9608 1381.73 C 54.6325 1392.64 43.154 1402.96 31.1482 1419.94 C 45.9597 1408.53 53.2367 1402.89 69.8808 1394.69 C 75.7329 1394.5 84.9569 1392.82 89.6098 1395.78 L 90.2008 1397.41 C 84.5296 1403.95 75.7701 1410.18 74.0878 1418.58 C 63.7498 1431.53 61.1073 1432.28 52.0687 1448.06 C 77.826 1421.55 140.081 1381.74 176.05 1408.3 C 177.662 1412.79 194.899 1427.47 199.463 1431.39 C 234.636 1461.65 248.226 1494.84 267.235 1535.55 C 281.718 1566.57 319.641 1599.1 346.684 1620.66 C 266.751 1649.12 113.429 1671.62 33.5871 1635.37 C 21.9736 1630.09 9.62361 1621.01 0 1612.56 L 0 1326.5 C 3.30726 1318.28 6.79929 1305.14 9.52738 1296.15 C 14.208 1280.64 19.1812 1265.23 24.4445 1249.91 C 51.1858 1172.06 104.317 1036.39 158.098 972.694 z"/>
<path transform="translate(0,0)" fill="rgb(212,233,247)" d="M 132.365 1273.96 C 142.496 1276.45 152.954 1287.21 156.911 1296.7 C 155.208 1298.02 153.247 1299.64 151.504 1300.85 C 145.426 1290.46 139.714 1283.44 132.365 1273.96 z"/>
<path transform="translate(0,0)" fill="rgb(253,253,253)" d="M 293.374 887.469 C 314.363 876.488 334.771 860.724 357.041 852.884 C 361.587 851.284 370.804 852.048 376.011 851.206 C 386.586 849.496 397.255 846.434 408.04 848.143 C 415.017 849.335 421.112 853.101 428.564 854.939 L 429.521 855.17 C 444.827 887.663 477.922 908.009 510.658 919.795 C 518.553 922.64 526.613 925.002 534.796 926.868 C 517.907 978.495 509.729 1021.99 501.083 1076.08 C 489.975 1146.87 482.216 1218.15 477.833 1289.67 C 453.24 1284.19 428.628 1278.53 403.969 1273.37 C 384.534 1269.3 365.585 1263.18 347.53 1274.53 C 344.495 1276.4 341.589 1278.47 338.834 1280.73 C 319.83 1274.77 294.482 1267.51 274.57 1266.79 C 271.836 1266.35 268.763 1266.14 266.481 1264.75 C 263.673 1259.34 260.437 1248.07 258.786 1241.72 C 240.534 1171.53 242.961 1096.84 242.965 1024.91 C 242.967 1002.1 241.114 980.315 241.425 957.613 C 241.611 943.97 243.487 934.182 245.194 921.114 C 254.097 918.824 272.716 899.394 282.85 894.894 C 284.639 894.1 291.806 888.815 293.374 887.469 z"/>
<path transform="translate(0,0)" fill="rgb(176,213,241)" d="M 979.012 1638.01 C 978.905 1726.49 983.408 1819.25 987.833 1907.61 L 992.788 1998.12 C 993.623 2012.42 994.368 2034.2 996.155 2048 L 868.792 2048 C 867.642 2038.68 867.192 2023.58 866.606 2013.77 L 862.72 1947.3 C 859.125 1884.14 855.035 1815.86 853.845 1752.91 C 846.974 1754.77 840.081 1756.69 833.261 1758.57 C 729.533 1787.12 620.339 1770.03 522.697 1728.51 C 509.638 1722.96 496.578 1716.84 483.321 1711.47 C 435.889 1720.98 388.143 1728.86 340.168 1735.08 C 282.889 1742.68 223.282 1750.68 165.403 1745.83 C 159.593 1745.34 151.82 1743.63 146.198 1744.39 C 147.504 1732.71 148.589 1721 149.453 1709.27 C 234.711 1716.08 329.288 1701.09 412.998 1685.65 C 438.799 1680.9 490.723 1670.44 515.205 1662.32 C 602.73 1701.1 715.351 1730.74 811.192 1733 C 882.828 1734.69 937.162 1692.75 979.012 1638.01 z"/>
<path transform="translate(0,0)" fill="rgb(253,253,253)" d="M 1146 1498.47 L 1146 2048 L 1010.17 2048 C 1009.55 2012.58 1005.27 1968.31 1003.2 1932 C 999.436 1861.13 996.572 1790.22 994.611 1719.27 C 1055.65 1653.51 1106.66 1579.11 1146 1498.47 z"/>
<path transform="translate(0,0)" fill="rgb(253,253,253)" d="M 0 1648.81 C 37.5271 1689.88 83.407 1700.77 136.022 1708.36 C 124.838 1821.35 116.35 1934.6 110.565 2048 L 0 2048 L 0 1648.81 z"/>
<path transform="translate(0,0)" fill="rgb(176,213,241)" d="M 176.05 1408.3 C 187.516 1413.67 198.502 1420.43 209.839 1426.24 C 228.263 1435.68 244.449 1441.05 264.237 1446.33 C 263.614 1471.14 262.271 1516.21 280.276 1535.98 C 288.769 1545.3 310.01 1558.07 321.072 1565.17 C 377.149 1601.2 435.66 1627.64 496.162 1654.84 C 378.091 1681.19 145.76 1731.84 39.5775 1664.68 C 23.5248 1654.53 11.4227 1641.96 0 1626.91 L 0 1612.56 C 9.62361 1621.01 21.9736 1630.09 33.5871 1635.37 C 113.429 1671.62 266.751 1649.12 346.684 1620.66 C 319.641 1599.1 281.718 1566.57 267.235 1535.55 C 248.226 1494.84 234.636 1461.65 199.463 1431.39 C 194.899 1427.47 177.662 1412.79 176.05 1408.3 z"/>
<path transform="translate(0,0)" fill="rgb(176,213,241)" d="M 904.749 646.768 C 928.886 673.41 961.954 696.502 990.28 719.47 C 1040.61 760.281 1085.65 805.064 1119.67 860.681 C 1130.72 878.739 1136.64 894.658 1146 911.639 L 1146 1350.35 C 1143.9 1339.67 1142.33 1323.49 1140.94 1312.19 C 1139.99 1308.82 1138.7 1298.05 1138.14 1294.02 C 1133.5 1298.82 1135.94 1303.32 1135.03 1310.42 C 1133.39 1303.24 1132.18 1297.83 1131.24 1290.52 C 1131.77 1287.89 1129.96 1272.94 1129.83 1267.91 C 1127.47 1261.64 1130.8 1252.14 1127.36 1247.06 C 1127.77 1239.68 1130.08 1225.57 1131.02 1217.69 C 1137.32 1140.84 1138.55 1074.62 1109.2 1001.07 C 1112.15 994.177 1113.03 985.201 1110.8 977.926 C 1083.01 887.519 1029.83 806.135 959.964 742.506 C 952.103 735.347 920.058 703.659 910.477 705.94 C 906.546 685.441 905.599 667.476 904.749 646.768 z"/>
<path transform="translate(0,0)" fill="rgb(110,145,174)" d="M 1131.02 1217.69 C 1139.62 1230.47 1137.56 1261.07 1137.98 1276.42 C 1138.29 1287.61 1142.93 1301.08 1140.94 1312.19 C 1139.99 1308.82 1138.7 1298.05 1138.14 1294.02 C 1133.5 1298.82 1135.94 1303.32 1135.03 1310.42 C 1133.39 1303.24 1132.18 1297.83 1131.24 1290.52 C 1131.77 1287.89 1129.96 1272.94 1129.83 1267.91 C 1127.47 1261.64 1130.8 1252.14 1127.36 1247.06 C 1127.77 1239.68 1130.08 1225.57 1131.02 1217.69 z"/>
<path transform="translate(0,0)" fill="rgb(48,47,50)" d="M 1129.83 1267.91 C 1131.82 1268.6 1132.81 1268.5 1133.52 1270.75 C 1135.67 1277.57 1137 1287.06 1138.14 1294.02 C 1133.5 1298.82 1135.94 1303.32 1135.03 1310.42 C 1133.39 1303.24 1132.18 1297.83 1131.24 1290.52 C 1131.77 1287.89 1129.96 1272.94 1129.83 1267.91 z"/>
<path transform="translate(0,0)" fill="rgb(176,213,241)" d="M 246.627 896.184 C 249.615 904.234 244.516 914.893 245.194 921.114 C 243.487 934.182 241.611 943.97 241.425 957.613 C 241.114 980.315 242.967 1002.1 242.965 1024.91 C 242.961 1096.84 240.534 1171.53 258.786 1241.72 C 260.437 1248.07 263.673 1259.34 266.481 1264.75 C 268.763 1266.14 271.836 1266.35 274.57 1266.79 C 259.199 1266.7 247.01 1267.19 232.085 1271.58 C 224.69 1199.37 226.011 1113.67 229.213 1041.19 C 230.774 1005.85 236.201 969.629 237.658 934.54 C 210.841 1008.86 212.469 1195.51 220.694 1275.17 C 194.012 1287.99 181.447 1297.91 161.734 1320.06 L 151.504 1300.85 C 153.247 1299.64 155.208 1298.02 156.911 1296.7 C 189.519 1264.38 202.921 1130.59 207.358 1084.06 C 209.519 1061.41 204.709 1012.86 200.386 989.627 C 191.985 944.481 176.273 969.155 158.098 972.694 C 160.162 969.193 165.94 962.651 168.91 959.219 C 191.698 932.884 216.944 913.809 246.627 896.184 z"/>
<path transform="translate(0,0)" fill="rgb(253,253,253)" d="M 910.477 705.94 C 920.058 703.659 952.103 735.347 959.964 742.506 C 1029.83 806.135 1083.01 887.519 1110.8 977.926 C 1113.03 985.201 1112.15 994.177 1109.2 1001.07 C 1081.25 931.902 1034.6 900.428 970.693 868.825 C 942.363 825.495 917.711 757.69 910.477 705.94 z"/>
<path transform="translate(0,0)" fill="rgb(253,253,253)" d="M 1123.11 1272.45 C 1126.19 1276.36 1129.34 1285.6 1131.24 1290.52 C 1132.18 1297.83 1133.39 1303.24 1135.03 1310.42 C 1135.94 1303.32 1133.5 1298.82 1138.14 1294.02 C 1138.7 1298.05 1139.99 1308.82 1140.94 1312.19 C 1142.33 1323.49 1143.9 1339.67 1146 1350.35 L 1146 1402.53 L 1146 1462.73 C 1141.16 1474.67 1135.54 1488.82 1129.42 1500.12 C 1128.09 1502.83 1123.2 1513.26 1121.85 1515.22 C 1108.04 1545.55 1087.93 1576.34 1069.35 1603.92 L 1066.18 1600.99 C 1064.38 1596.02 1089.48 1493.68 1088.76 1478.46 C 1088.23 1467.31 1094.22 1417.01 1089.13 1409.35 C 1096.06 1387.25 1102.38 1364.96 1108.08 1342.51 C 1114.27 1318.68 1118.1 1296.31 1123.11 1272.45 z"/>
<path transform="translate(0,0)" fill="rgb(176,213,241)" d="M 1123.11 1272.45 C 1126.19 1276.36 1129.34 1285.6 1131.24 1290.52 C 1132.18 1297.83 1133.39 1303.24 1135.03 1310.42 C 1135.94 1303.32 1133.5 1298.82 1138.14 1294.02 C 1138.7 1298.05 1139.99 1308.82 1140.94 1312.19 C 1142.33 1323.49 1143.9 1339.67 1146 1350.35 L 1146 1402.53 L 1146 1462.73 C 1141.16 1474.67 1135.54 1488.82 1129.42 1500.12 C 1123.07 1493.64 1125.73 1476 1125.98 1466.92 C 1126 1460.05 1129.32 1441.56 1127.43 1438.03 C 1124.26 1438.13 1122.96 1438.48 1120.23 1436.91 C 1119 1435.31 1118.09 1433.06 1118.24 1431.1 C 1120.28 1404.54 1119.6 1377.79 1114.89 1351.54 C 1114.01 1346.67 1112.18 1344.94 1108.08 1342.51 C 1114.27 1318.68 1118.1 1296.31 1123.11 1272.45 z"/>
<path transform="translate(0,0)" fill="rgb(8,16,33)" d="M 1138.14 1294.02 C 1138.7 1298.05 1139.99 1308.82 1140.94 1312.19 C 1142.33 1323.49 1143.9 1339.67 1146 1350.35 L 1146 1402.53 C 1143.18 1391.33 1142.06 1369 1140.6 1357.04 C 1138.79 1342.24 1135.88 1325.05 1135.03 1310.42 C 1135.94 1303.32 1133.5 1298.82 1138.14 1294.02 z"/>
<path transform="translate(0,0)" fill="rgb(212,233,247)" d="M 1125.98 1466.92 C 1125.73 1476 1123.07 1493.64 1129.42 1500.12 C 1128.09 1502.83 1123.2 1513.26 1121.85 1515.22 C 1114.2 1505.86 1123.14 1478.49 1125.98 1466.92 z"/>
<path transform="translate(0,0)" fill="rgb(176,213,241)" d="M 1089.13 1409.35 C 1094.22 1417.01 1088.23 1467.31 1088.76 1478.46 C 1089.48 1493.68 1064.38 1596.02 1066.18 1600.99 L 1069.35 1603.92 C 1066.27 1609.39 1055.64 1623.7 1051.77 1629.03 C 1033.83 1654.04 1014.49 1678.02 993.836 1700.84 C 992.191 1676.23 992.477 1645.32 992.014 1620.13 C 1033.65 1560.26 1065.59 1477.86 1089.13 1409.35 z"/>
<path transform="translate(0,0)" fill="rgb(184,219,244)" d="M 283.79 877.413 C 296.835 870.581 318.064 862.37 331.913 857.036 C 361.896 845.825 391.979 834.882 422.158 824.208 C 423.314 837.737 424.667 842.421 429.521 855.17 L 428.564 854.939 C 421.112 853.101 415.017 849.335 408.04 848.143 C 397.255 846.434 386.586 849.496 376.011 851.206 C 370.804 852.048 361.587 851.284 357.041 852.884 C 334.771 860.724 314.363 876.488 293.374 887.469 C 291.806 888.815 284.639 894.1 282.85 894.894 C 272.716 899.394 254.097 918.824 245.194 921.114 C 244.516 914.893 249.615 904.234 246.627 896.184 C 254.209 891.685 275.941 879.617 283.79 877.413 z"/>
<path transform="translate(0,0)" fill="rgb(212,233,247)" d="M 283.79 877.413 C 293.638 878.389 325.736 858.466 340.02 857.107 C 335.3 863.872 293.671 882.877 293.374 887.469 C 291.806 888.815 284.639 894.1 282.85 894.894 C 272.716 899.394 254.097 918.824 245.194 921.114 C 244.516 914.893 249.615 904.234 246.627 896.184 C 254.209 891.685 275.941 879.617 283.79 877.413 z"/>
<path transform="translate(0,0)" fill="rgb(176,213,241)" d="M 132.725 1286.87 C 140.612 1301.04 148.123 1315.14 153.376 1330.56 C 144.436 1343.32 134.61 1360.42 130.938 1375.7 C 107.172 1370.05 94.0176 1372.9 71.9608 1381.73 C 79.1664 1368.09 113.955 1356.07 123.435 1343.4 C 136.094 1326.48 134.753 1306.2 132.725 1286.87 z"/>
<path transform="translate(0,0)" fill="rgb(176,213,241)" d="M 69.8808 1394.69 C 82.9131 1388.66 114.398 1379.61 127.103 1387.58 L 127.553 1389.39 C 124.887 1391.72 118.063 1392.34 114.413 1393.69 C 99.4606 1399.22 86.2509 1408.34 74.0878 1418.58 C 75.7701 1410.18 84.5296 1403.95 90.2008 1397.41 L 89.6098 1395.78 C 84.9569 1392.82 75.7329 1394.5 69.8808 1394.69 z"/>
<path transform="translate(0,0)" fill="rgb(184,219,244)" d="M 1127.36 1247.06 C 1130.8 1252.14 1127.47 1261.64 1129.83 1267.91 C 1129.96 1272.94 1131.77 1287.89 1131.24 1290.52 C 1129.34 1285.6 1126.19 1276.36 1123.11 1272.45 C 1123.66 1265.22 1125.98 1254.46 1127.36 1247.06 z"/>
<path transform="translate(0,0)" fill="rgb(253,253,253)" d="M 793.8 817.162 C 867.598 842.027 985.96 878.381 1042.86 928.856 C 1169.66 1046.2 1117.78 1280.2 1070.69 1423.56 C 1040.05 1516.86 976.243 1657.54 887.082 1702.91 C 810.663 1741.8 665.612 1702.39 587.585 1675.77 C 497.714 1645.05 411.338 1604.92 329.893 1556.06 C 317.043 1548.19 291.174 1533.07 284.756 1520.42 C 276.866 1504.87 273.657 1460.71 276.905 1444.97 C 276.859 1440.48 279.431 1423.67 280.4 1418.4 C 288.874 1372.37 310.897 1316.17 349.813 1287.4 C 361.066 1279.08 368.442 1278.75 381.419 1281.36 C 445.786 1294.27 510.245 1309.95 574.041 1325.36 C 607.894 1333.36 641.679 1341.64 675.392 1350.21 C 766.58 1373.36 817.343 1384.28 873.884 1465.3 C 868.024 1449.25 863.483 1443.12 855.42 1428.17 C 856.847 1420.13 850.263 1412.48 845.838 1406.62 C 839.746 1398.55 841.56 1397.4 847.698 1391.55 C 867.74 1402.15 882.139 1416.18 897.188 1432.52 C 887.702 1413.1 876.269 1398.7 860.003 1384.39 C 852.581 1380.83 845.267 1377.05 838.07 1373.06 C 852.435 1373.85 870.974 1378.21 884.825 1375.91 C 890.887 1374.49 895.839 1372.46 900.804 1368.98 C 915.47 1358.67 906.767 1344.99 907.517 1340.48 C 916.768 1337.84 923.637 1336.63 931.937 1331.64 C 941.18 1324.03 943.185 1319.94 944.695 1308.19 L 943.029 1303.05 C 942.119 1299.04 938.083 1294.96 935.27 1292.22 C 936.089 1291.86 936.905 1291.51 937.72 1291.15 C 950.896 1285.29 954.628 1280.85 959.715 1267.54 C 961.818 1249.05 950.922 1243.2 935.458 1238.17 C 932.152 1237.02 926.844 1235.77 923.311 1234.83 C 929.423 1229.52 931.492 1226.89 935.474 1219.86 C 939.051 1194.22 921.886 1189.88 900.23 1186.65 C 880.466 1183.7 861.666 1184.8 841.921 1186.81 C 847.646 1166.52 854.665 1143.78 862.564 1124.34 C 873.498 1091.13 902.052 1042.28 922.767 1014.15 C 931.428 1002.39 942.994 989.549 952.483 978.145 C 946.929 981.896 939.345 989.033 934.311 993.603 C 894.677 1029.58 870.814 1076.84 849.838 1125.22 C 858.699 1087.48 868.322 1054.37 884.599 1019.02 C 886.004 1015.96 887.469 1012.57 887.696 1009.22 C 901.24 991.711 910.721 976.116 928.446 960.702 C 937.415 952.903 944.076 948.491 953.359 941.494 C 947.465 935.713 934.621 927.751 927.118 923.543 C 888.118 901.669 841.837 882.934 796.457 883.289 C 780.543 883.413 765.142 889.42 749.716 890.641 C 749.475 890.625 749.234 890.609 748.993 890.593 C 772.523 869.224 789.578 850.187 793.8 817.162 z"/>
<path transform="translate(0,0)" fill="rgb(176,213,241)" d="M 793.8 817.162 C 867.598 842.027 985.96 878.381 1042.86 928.856 C 1169.66 1046.2 1117.78 1280.2 1070.69 1423.56 C 1040.05 1516.86 976.243 1657.54 887.082 1702.91 C 810.663 1741.8 665.612 1702.39 587.585 1675.77 C 497.714 1645.05 411.338 1604.92 329.893 1556.06 C 317.043 1548.19 291.174 1533.07 284.756 1520.42 C 276.866 1504.87 273.657 1460.71 276.905 1444.97 C 277.218 1448.23 277.058 1453.41 277.052 1456.85 C 363.158 1526.07 472.567 1575.64 577.181 1609.59 C 658.709 1636.05 785.173 1670.54 865.355 1629.44 C 948.321 1586.9 1000.63 1460.55 1027.97 1375.92 C 1060.31 1275.78 1091.58 1105.52 1041.67 1008.61 C 1034.82 995.303 1025.28 982.118 1010.32 977.549 C 965.198 963.771 911.708 1041.96 892.155 1074.59 C 886.531 1083.98 870.586 1120.42 863.201 1124.05 C 862.992 1124.15 862.777 1124.24 862.564 1124.34 C 873.498 1091.13 902.052 1042.28 922.767 1014.15 C 931.428 1002.39 942.994 989.549 952.483 978.145 C 946.929 981.896 939.345 989.033 934.311 993.603 C 894.677 1029.58 870.814 1076.84 849.838 1125.22 C 858.699 1087.48 868.322 1054.37 884.599 1019.02 C 886.004 1015.96 887.469 1012.57 887.696 1009.22 C 901.24 991.711 910.721 976.116 928.446 960.702 C 937.415 952.903 944.076 948.491 953.359 941.494 C 947.465 935.713 934.621 927.751 927.118 923.543 C 888.118 901.669 841.837 882.934 796.457 883.289 C 780.543 883.413 765.142 889.42 749.716 890.641 C 749.475 890.625 749.234 890.609 748.993 890.593 C 772.523 869.224 789.578 850.187 793.8 817.162 z"/>
<path transform="translate(0,0)" fill="rgb(176,213,241)" d="M 884.825 1375.91 C 890.887 1374.49 895.839 1372.46 900.804 1368.98 C 915.47 1358.67 906.767 1344.99 907.517 1340.48 C 916.768 1337.84 923.637 1336.63 931.937 1331.64 C 932.658 1335.17 933.124 1338.6 934.834 1341.77 C 928.673 1345.5 923.871 1347.58 917.309 1350.51 C 919.144 1358.39 919.993 1361.75 915.866 1369.01 C 911.981 1375.84 900.79 1381.84 893.246 1382.29 L 894.358 1380.75 L 893.318 1378.35 C 889.999 1376.01 888.853 1376.16 884.825 1375.91 z"/>
<path transform="translate(0,0)" fill="rgb(176,213,241)" d="M 959.715 1267.54 C 972.27 1281.13 956.542 1298.24 943.029 1303.05 C 942.119 1299.04 938.083 1294.96 935.27 1292.22 C 936.089 1291.86 936.905 1291.51 937.72 1291.15 C 950.896 1285.29 954.628 1280.85 959.715 1267.54 z"/>
<path transform="translate(0,0)" fill="rgb(184,219,244)" d="M 838.07 1373.06 C 852.435 1373.85 870.974 1378.21 884.825 1375.91 C 888.853 1376.16 889.999 1376.01 893.318 1378.35 L 894.358 1380.75 L 893.246 1382.29 C 882.971 1383.1 872.97 1382.6 862.657 1382.63 C 861.865 1382.63 860.6 1383.71 860.003 1384.39 C 852.581 1380.83 845.267 1377.05 838.07 1373.06 z"/>
<path transform="translate(0,0)" fill="rgb(184,219,244)" d="M 944.695 1308.19 C 947.502 1319.85 946.669 1335.31 934.834 1341.77 C 933.124 1338.6 932.658 1335.17 931.937 1331.64 C 941.18 1324.03 943.185 1319.94 944.695 1308.19 z"/>
<path transform="translate(0,0)" fill="rgb(184,219,244)" d="M 923.311 1234.83 C 929.423 1229.52 931.492 1226.89 935.474 1219.86 C 938.897 1226.74 937.129 1230.61 935.458 1238.17 C 932.152 1237.02 926.844 1235.77 923.311 1234.83 z"/>
<path transform="translate(0,0)" fill="rgb(248,200,137)" d="M 420.114 257.189 C 446.292 232.791 463.213 215.166 498.975 234.359 C 508.319 239.537 517.929 244.721 527.054 250.239 C 557.56 266.423 578.431 279.508 610.599 256.343 C 638.207 294.735 683.034 273.29 717.118 257.34 C 737.248 247.028 763.538 236.279 785.888 243.992 C 821.094 256.142 848.105 312.325 856.892 345.041 C 842.851 383.883 829.72 447.969 833.346 489.353 C 834.898 507.061 844.35 527.399 850.723 544.232 C 855.456 556.734 859.251 569.571 862.077 582.637 C 888.462 707.718 753.288 819.316 638.743 827.57 C 667.535 814.398 676.957 810.054 700.35 787.892 C 709.62 776.733 717.534 766.686 725.385 754.511 C 725.056 754.662 724.727 754.814 724.398 754.966 C 707.712 770.712 692.613 789.273 672.651 801.423 C 637.669 822.714 590.639 829.313 551.082 818.566 C 518.259 809.049 502.95 791.764 487.244 762.833 L 477.5 744.705 C 481.542 763.138 484.118 770.294 492.616 787.227 C 494.779 789.513 503.343 801.19 506.306 804.817 C 407.488 758.528 343.49 679.143 370.307 566.357 C 374.038 550.665 378.903 535.651 383.303 520.174 C 388.281 502.277 392.6 484.204 396.253 465.99 C 407.04 411.029 412.126 357.883 416.89 302.301 C 416.739 292.443 419.312 268.065 420.114 257.189 z"/>
<path transform="translate(0,0)" fill="rgb(200,165,128)" d="M 663.578 538.001 L 664.275 533.548 C 675.213 552.868 705.188 569.617 725.936 575.905 C 773.815 593.871 780.286 629.284 769.135 674.891 C 767.87 680.064 763.065 690.349 763.261 695.026 C 751.96 714.024 739.725 738.644 725.385 754.511 C 725.056 754.662 724.727 754.814 724.398 754.966 C 707.712 770.712 692.613 789.273 672.651 801.423 C 637.669 822.714 590.639 829.313 551.082 818.566 C 518.259 809.049 502.95 791.764 487.244 762.833 L 477.5 744.705 C 481.542 763.138 484.118 770.294 492.616 787.227 C 471.527 776.637 451.542 738.646 443.816 717.294 C 437.699 700.388 436.326 681.313 436.09 663.536 C 439.178 679.658 443.694 691.607 453.614 704.652 C 443.723 681.857 438.295 660.516 442.598 635.488 C 447.53 606.808 464.234 595.678 485.836 580.69 C 490.253 583.188 524.401 587.883 528.057 585.809 C 549.739 604.019 571.095 613.861 600.178 611.363 C 602.031 611.201 603.883 611.014 605.731 610.801 C 623.872 607.516 633.622 602.62 649.129 592.823 C 667.437 578.347 675.199 559.423 663.578 538.001 z"/>
<path transform="translate(0,0)" fill="rgb(233,141,67)" d="M 663.578 538.001 L 664.275 533.548 C 675.213 552.868 705.188 569.617 725.936 575.905 C 723.451 576.683 717.072 578.528 715.08 579.57 C 706.24 580.325 702.217 580.981 693.896 582.641 C 683.105 584.793 658.659 594.177 649.129 592.823 C 667.437 578.347 675.199 559.423 663.578 538.001 z"/>
<path transform="translate(0,0)" fill="rgb(173,142,121)" d="M 649.129 592.823 C 658.659 594.177 683.105 584.793 693.896 582.641 C 702.217 580.981 706.24 580.325 715.08 579.57 C 699.816 591.611 656.917 604.244 637.312 610.576 C 627.926 613.607 614.536 610.306 605.731 610.801 C 623.872 607.516 633.622 602.62 649.129 592.823 z"/>
<path transform="translate(0,0)" fill="rgb(248,200,137)" d="M 693.974 623.953 C 712.655 611.89 743.7 630.659 744.192 655.198 L 743.396 656.733 C 740.586 652.455 736.545 645.35 733.471 641.885 C 724.755 676.313 707.93 715.527 686.038 742.564 C 637.79 802.148 540.309 808.678 501.753 734.959 C 484.119 701.244 479.6 679.175 486.227 641.858 L 485.007 641.87 C 477.719 646.142 472.012 657.405 466.829 664.748 C 469.962 646.37 477.862 625.713 502.154 628.18 C 504.162 628.384 504.579 629.05 505.494 630.586 L 498.006 633.333 C 503.881 635.606 517.179 635.707 524.049 636.96 C 551.042 641.882 577.735 645.858 605.282 643.633 C 630.843 641.569 654.666 632.736 679.44 627.061 C 683.628 626.102 690.318 625.82 693.974 623.953 z"/>
<path transform="translate(0,0)" fill="rgb(0,0,0)" d="M 693.974 623.953 C 712.655 611.89 743.7 630.659 744.192 655.198 L 743.396 656.733 C 740.586 652.455 736.545 645.35 733.471 641.885 C 728.31 637.124 725.65 635.74 719.577 632.434 C 701.4 640.71 681.843 649.956 663.334 657.065 C 616.458 675.068 525.693 679.198 486.227 641.858 L 485.007 641.87 C 477.719 646.142 472.012 657.405 466.829 664.748 C 469.962 646.37 477.862 625.713 502.154 628.18 C 504.162 628.384 504.579 629.05 505.494 630.586 L 498.006 633.333 C 503.881 635.606 517.179 635.707 524.049 636.96 C 551.042 641.882 577.735 645.858 605.282 643.633 C 630.843 641.569 654.666 632.736 679.44 627.061 C 683.628 626.102 690.318 625.82 693.974 623.953 z"/>
<path transform="translate(0,0)" fill="rgb(248,200,137)" d="M 693.974 623.953 C 701.781 625.151 705.446 625.678 712.927 628.198 C 690.004 634.767 668.274 644.73 645.181 651.214 C 599.658 663.994 538.805 663.424 496.401 640.379 C 495.201 639.727 493.956 638.8 492.904 637.941 L 492.945 636.284 L 498.006 633.333 C 503.881 635.606 517.179 635.707 524.049 636.96 C 551.042 641.882 577.735 645.858 605.282 643.633 C 630.843 641.569 654.666 632.736 679.44 627.061 C 683.628 626.102 690.318 625.82 693.974 623.953 z"/>
<path transform="translate(0,0)" fill="rgb(0,0,0)" d="M 516.838 677.539 C 518.974 678.388 528.143 688.134 531.212 690.721 C 538.922 697.223 553.212 702.107 562.961 704.45 C 594.016 711.93 626.716 708.176 655.269 693.853 C 663.985 689.395 670.354 684.485 678.565 679.477 L 679.034 680.22 L 676.138 683.408 C 642.531 717.886 585.31 728.504 541.867 706.455 C 530.283 700.576 520.45 690.188 516.838 677.539 z"/>
<path transform="translate(0,0)" fill="rgb(0,0,0)" d="M 583.353 733.27 C 608.408 729.823 624.961 738.415 641.464 756.194 C 629.378 748.206 622.928 744.974 608.828 741.292 C 586.446 737.047 566.344 742.429 546.287 752.086 C 557.809 739.811 566.854 736.028 583.353 733.27 z"/>
<path transform="translate(0,0)" fill="rgb(0,0,0)" d="M 728.959 260.635 C 745.673 258.376 748.406 259.073 764.244 266.217 C 788.572 284.013 799.798 311.068 810.353 338.118 C 812.106 343.899 818.358 362.601 815.637 367.741 C 817.189 368.493 819.061 368.944 819.317 371.118 C 823.168 403.806 813.781 445.951 802.204 476.525 C 799.368 484.015 786.431 492.676 786.849 497.71 C 781.385 497.834 776.259 497.905 770.801 498.445 L 770.004 497.295 C 767.358 498.359 766.881 499.086 764.766 501.113 C 755.471 500.335 750.025 508.765 744.84 508.374 C 743.358 505.59 744.607 504.506 745.762 500.458 C 725.01 521.774 689.893 535.553 662.654 515.816 C 644.988 503.016 642.652 483.05 640.014 462.964 C 635.059 457.68 635.719 447.417 634.815 440.547 C 631.902 418.21 634.125 396.219 643.306 375.533 C 645.585 370.398 651.784 360.198 652.717 355.568 C 650.259 356.979 648.283 358.757 645.959 358.502 C 645.71 354.3 648.644 347.778 650.321 343.747 C 667.4 302.701 685.062 275.126 728.959 260.635 z"/>
<path transform="translate(0,0)" fill="rgb(233,141,67)" d="M 728.959 260.635 C 745.673 258.376 748.406 259.073 764.244 266.217 C 788.572 284.013 799.798 311.068 810.353 338.118 C 812.106 343.899 818.358 362.601 815.637 367.741 C 817.189 368.493 819.061 368.944 819.317 371.118 C 823.168 403.806 813.781 445.951 802.204 476.525 C 799.368 484.015 786.431 492.676 786.849 497.71 C 781.385 497.834 776.259 497.905 770.801 498.445 L 770.004 497.295 C 767.358 498.359 766.881 499.086 764.766 501.113 C 755.471 500.335 750.025 508.765 744.84 508.374 C 743.358 505.59 744.607 504.506 745.762 500.458 C 777.117 456.103 792.841 391.186 752.13 344.699 C 732.843 322.677 697.805 331.045 679.225 351.097 C 651.694 380.807 639.266 422.648 640.014 462.964 C 635.059 457.68 635.719 447.417 634.815 440.547 C 631.902 418.21 634.125 396.219 643.306 375.533 C 645.585 370.398 651.784 360.198 652.717 355.568 C 650.259 356.979 648.283 358.757 645.959 358.502 C 645.71 354.3 648.644 347.778 650.321 343.747 C 667.4 302.701 685.062 275.126 728.959 260.635 z"/>
<path transform="translate(0,0)" fill="rgb(0,0,0)" d="M 728.959 260.635 C 745.673 258.376 748.406 259.073 764.244 266.217 C 788.572 284.013 799.798 311.068 810.353 338.118 C 812.106 343.899 818.358 362.601 815.637 367.741 C 810.473 352.124 803.828 335.513 793.652 322.504 C 744.222 259.319 692.991 324.679 652.717 355.568 C 650.259 356.979 648.283 358.757 645.959 358.502 C 645.71 354.3 648.644 347.778 650.321 343.747 C 667.4 302.701 685.062 275.126 728.959 260.635 z"/>
<path transform="translate(0,0)" fill="rgb(48,47,50)" d="M 732.857 281.821 C 756.614 271.766 770.057 282.802 782.99 302.984 C 765.993 291.376 759.982 287.794 739.185 289.108 C 733.236 290.218 722.014 294.296 715.816 296.373 C 721.918 288.967 724.475 286.412 732.857 281.821 z"/>
<path transform="translate(0,0)" fill="rgb(253,253,253)" d="M 711.7 343.211 C 720.767 342.333 731.471 342.621 738.829 348.257 C 777.71 378.042 770.391 448.294 747.292 485.371 C 734.892 505.276 719.366 514.452 698.505 519.167 C 606.116 530.742 642.106 361.539 711.7 343.211 z"/>
<path transform="translate(0,0)" fill="rgb(0,0,0)" d="M 696.572 394.128 C 743.154 391.001 743.167 475.099 697.173 491.2 C 644.705 492.443 650.588 407.336 696.572 394.128 z"/>
<path transform="translate(0,0)" fill="rgb(77,26,2)" d="M 700.435 401.266 C 712.774 400.854 720.766 412.065 723.092 423.048 C 726.304 438.768 723.117 455.12 714.237 468.484 C 708.134 477.867 702.84 481.756 692.242 483.967 C 653.211 478.978 663.848 406.093 700.435 401.266 z"/>
<path transform="translate(0,0)" fill="rgb(0,0,0)" d="M 690.848 420.65 C 693.84 418.714 694.84 417.736 698.475 418.077 C 701.601 419.238 703.473 421.53 704.616 424.654 C 713.677 436.622 708.928 462.251 696.384 467.086 C 675.172 475.26 676.033 426.172 690.848 420.65 z"/>
<path transform="translate(0,0)" fill="rgb(253,253,253)" d="M 690.848 420.65 C 693.84 418.714 694.84 417.736 698.475 418.077 C 701.601 419.238 703.473 421.53 704.616 424.654 C 703.144 430.049 701.904 433.734 695.62 434.332 C 688.48 431.423 689.439 427.175 690.848 420.65 z"/>
<path transform="translate(0,0)" fill="rgb(0,0,0)" d="M 438.67 362.639 C 444.821 331.804 462.214 293.372 489.116 276.615 C 547.797 240.064 576.139 326.3 582.606 368.013 C 587.462 399.331 589.66 423.672 582.928 453.672 C 580.495 464.562 576.861 475.149 572.091 485.238 C 602.436 483.55 623.295 484.526 647.684 505.201 C 615.9 493.491 586.598 486.789 554.122 501.257 C 531.317 511.417 512.546 535.38 524.388 560.717 C 526.726 565.672 532.816 573.923 537.16 577.205 C 539.716 578.095 544.31 580.092 546.723 581.324 C 581.561 599.107 635.19 579.858 644.849 539.768 C 635.878 542.179 619.23 549.802 610.114 553.665 C 619.537 546.321 639.301 532.034 651.179 531.625 C 656.786 531.432 659.875 534.484 663.578 538.001 C 675.199 559.423 667.437 578.347 649.129 592.823 C 633.622 602.62 623.872 607.516 605.731 610.801 C 603.883 611.014 602.031 611.201 600.178 611.363 C 571.095 613.861 549.739 604.019 528.057 585.809 C 507.747 564.642 503.714 542.993 518.574 517.562 C 481.616 516.568 467.329 486.618 456.537 456.324 C 436.543 443.024 432.14 383.614 438.67 362.639 z"/>
<path transform="translate(0,0)" fill="rgb(233,141,67)" d="M 438.67 362.639 C 442.025 360.431 449.744 343.305 452.72 338.694 C 465.412 319.032 489.222 297.865 514.181 300.301 C 533.924 302.228 551.665 323.912 559.989 340.637 C 531.049 317.458 498.331 327.111 477.214 354.506 C 455.643 382.491 449.204 422.335 456.537 456.324 C 436.543 443.024 432.14 383.614 438.67 362.639 z"/>
<path transform="translate(0,0)" fill="rgb(230,129,54)" d="M 644.849 539.768 C 647.385 539.137 651.922 537.819 654.154 539.615 C 662.652 546.449 660.99 564.527 654.753 572.628 C 628.298 606.98 564.693 610.583 537.16 577.205 C 539.716 578.095 544.31 580.092 546.723 581.324 C 581.561 599.107 635.19 579.858 644.849 539.768 z"/>
<path transform="translate(0,0)" fill="rgb(253,253,253)" d="M 519.23 339.16 C 561.994 336.12 575.618 374.796 577.472 410.204 C 578.971 438.832 574.663 461.114 564.507 487.579 C 546.604 492.234 536.881 497.6 523.713 510.603 C 492.062 516.458 473.012 484.295 466.119 458.088 C 455.03 415.926 471.29 350.133 519.23 339.16 z"/>
<path transform="translate(0,0)" fill="rgb(0,0,0)" d="M 538.846 384.156 C 574.076 384.097 579.216 439.555 564.607 462.393 C 556.657 474.822 551.912 478.459 538.165 482.306 C 533.036 481.863 528.094 480.171 523.77 477.378 C 493.883 457.729 496.533 392.503 538.846 384.156 z"/>
<path transform="translate(0,0)" fill="rgb(77,26,2)" d="M 538.444 391.309 C 558.788 390.073 562.524 412.779 564.328 427.636 C 566.954 449.263 548.819 490.891 523.872 467.643 C 505.357 450.388 508.292 407.192 530.588 394.034 C 532.532 392.989 536.211 391.997 538.444 391.309 z"/>
<path transform="translate(0,0)" fill="rgb(0,0,0)" d="M 537.984 409.036 C 540.755 410.797 543.627 412.563 546.324 414.423 C 555.142 418.862 557.253 435.282 555.202 443.48 C 549.17 467.591 525.335 455.571 524.559 436.436 C 524.296 429.972 527.078 418.253 530.802 413.724 L 530.885 414.723 C 533.417 411.54 534.512 411.082 537.984 409.036 z"/>
<path transform="translate(0,0)" fill="rgb(253,253,253)" d="M 537.984 409.036 C 540.755 410.797 543.627 412.563 546.324 414.423 C 545.087 420.39 544.489 424.124 537.982 426.255 C 530.823 425.54 530.969 420.755 530.885 414.723 C 533.417 411.54 534.512 411.082 537.984 409.036 z"/>
<path transform="translate(0,0)" fill="rgb(66,22,1)" d="M 530.588 394.034 C 532.532 392.989 536.211 391.997 538.444 391.309 C 538.442 392.804 538.114 408.646 537.984 409.036 C 534.512 411.082 533.417 411.54 530.885 414.723 L 530.802 413.724 C 531.956 409.892 530.909 398.51 530.588 394.034 z"/>
<path transform="translate(0,0)" fill="rgb(48,47,50)" d="M 500.165 284.988 C 502.393 284.892 504.624 284.954 506.843 285.173 C 514.398 285.868 518.009 288.896 522.611 294.492 C 515.92 292.915 512.88 292.545 506.164 291.938 C 495.271 293.61 491.611 295.055 481.845 299.318 C 488.192 292.503 491.564 289.088 500.165 284.988 z"/>
<path transform="translate(0,0)" fill="rgb(230,129,54)" d="M 717.118 257.34 C 737.248 247.028 763.538 236.279 785.888 243.992 C 821.094 256.142 848.105 312.325 856.892 345.041 C 842.851 383.883 829.72 447.969 833.346 489.353 C 834.898 507.061 844.35 527.399 850.723 544.232 C 855.456 556.734 859.251 569.571 862.077 582.637 C 888.462 707.718 753.288 819.316 638.743 827.57 C 667.535 814.398 676.957 810.054 700.35 787.892 C 709.517 788.117 740.729 768.244 749.012 761.842 C 817.445 708.956 871.426 598.742 821.841 516.954 C 814.266 504.46 800.829 499.386 786.849 497.71 C 786.431 492.676 799.368 484.015 802.204 476.525 C 813.781 445.951 823.168 403.806 819.317 371.118 C 819.061 368.944 817.189 368.493 815.637 367.741 C 818.358 362.601 812.106 343.899 810.353 338.118 C 799.798 311.068 788.572 284.013 764.244 266.217 C 748.406 259.073 745.673 258.376 728.959 260.635 C 728.12 260.152 719.861 258.306 717.118 257.34 z"/>
<path transform="translate(0,0)" fill="rgb(248,200,137)" d="M 764.244 266.217 C 770.929 266.01 778.425 272.208 783.258 276.251 C 797.094 287.827 810.429 315.645 810.767 333.643 C 810.805 335.146 810.666 336.648 810.353 338.118 C 799.798 311.068 788.572 284.013 764.244 266.217 z"/>
<path transform="translate(0,0)" fill="rgb(230,129,54)" d="M 420.114 257.189 C 446.292 232.791 463.213 215.166 498.975 234.359 C 508.319 239.537 517.929 244.721 527.054 250.239 C 519.047 249.808 512.83 244.983 501.793 244.255 C 463.709 246.629 437.39 272.042 416.89 302.301 C 416.739 292.443 419.312 268.065 420.114 257.189 z"/>
<path transform="translate(0,0)" fill="rgb(0,0,0)" d="M 664.275 533.548 C 670.968 535.873 684.869 546.377 691.667 550.632 C 705.233 559.122 714.523 562.457 729.791 566.663 C 778.363 589.408 788.505 617.13 775.061 668.296 C 771.797 676.727 767.929 687.329 763.261 695.026 C 763.065 690.349 767.87 680.064 769.135 674.891 C 780.286 629.284 773.815 593.871 725.936 575.905 C 705.188 569.617 675.213 552.868 664.275 533.548 z"/>
<path transform="translate(0,0)" fill="rgb(230,129,54)" d="M 729.791 566.663 C 750.468 567.789 771.288 576.676 786.202 591.434 C 805.992 611.016 796.038 653.015 775.061 668.296 C 788.505 617.13 778.363 589.408 729.791 566.663 z"/>
<path transform="translate(0,0)" fill="rgb(0,0,0)" d="M 434.125 645.255 C 438.524 593.992 456.542 594.488 492.073 565.804 C 497.154 561.703 503.513 550.075 507.208 544.458 C 504.679 560.812 497.245 569.88 485.836 580.69 C 464.234 595.678 447.53 606.808 442.598 635.488 C 438.295 660.516 443.723 681.857 453.614 704.652 C 443.694 691.607 439.178 679.658 436.09 663.536 C 435.521 657.332 434.969 651.442 434.125 645.255 z"/>
<path transform="translate(0,0)" fill="rgb(230,129,54)" d="M 434.125 645.255 C 431.546 640.453 429.966 632.049 429.507 626.5 C 428.545 613.78 432.694 601.201 441.035 591.55 C 443.95 588.191 447.215 585.153 450.772 582.484 C 458.039 576.924 470.549 569.907 478.733 564.323 C 484.956 560.077 503.028 542.769 507.597 542.431 L 507.208 544.458 C 503.513 550.075 497.154 561.703 492.073 565.804 C 456.542 594.488 438.524 593.992 434.125 645.255 z"/>
<path transform="translate(0,0)" fill="rgb(0,0,0)" d="M 764.766 501.113 C 766.881 499.086 767.358 498.359 770.004 497.295 L 770.801 498.445 C 763.472 514.269 749.842 523.518 734.021 529.726 C 725.987 532.879 695.426 538.343 692.149 526.36 C 695.079 525.648 696.734 526.692 699.557 527.291 C 724.018 532.474 748.233 518.048 764.766 501.113 z"/>
<path transform="translate(0,0)" fill="rgb(0,0,0)" d="M 445.003 478.49 C 450.192 481.353 458.085 509.617 475.587 518.985 C 490.315 526.868 499.265 521.97 504.473 524.396 L 503.793 525.997 C 472.685 535.478 445.969 507.999 445.003 478.49 z"/>
<path transform="translate(0,0)" fill="rgb(253,253,253)" d="M 384.716 225.066 C 384.438 228.718 373.872 247.441 372.121 252.993 C 365.499 275.127 350.538 309.075 351.527 331.987 C 352.814 361.796 376.481 405.358 390.982 431.359 C 369.944 584.765 300.81 682.218 228.734 815.661 C 212.037 846.701 195.753 877.962 179.888 909.435 C 173.783 921.614 168.752 934.733 162.662 946.389 C 160.595 950.344 148.527 964.182 144.983 968.628 C 135.989 980.081 127.602 991.999 119.857 1004.33 C 83.002 1063.79 55.285 1129.74 30.4761 1195 C 21.2807 1128.2 25.4038 1073.02 38.7981 1006.76 C 55.6154 932.547 77.833 859.657 105.273 788.678 C 122.31 744.408 144.252 695.596 163.437 652.019 C 160.501 668.157 153.403 685.469 149.582 701.69 C 137.742 751.954 120.912 802.533 112.373 853.382 C 116.599 845.267 121.337 833.218 124.929 824.613 C 149.571 765.578 164.278 702.289 179.514 640.337 C 189.033 602.109 199.939 564.239 212.211 526.805 C 241.991 434.909 274.848 357.043 335.545 280.738 C 352.889 258.933 364.093 244.739 384.716 225.066 z"/>
<path transform="translate(0,0)" fill="rgb(253,253,253)" d="M 748.993 890.593 C 749.234 890.609 749.475 890.625 749.716 890.641 C 765.142 889.42 780.543 883.413 796.457 883.289 C 841.837 882.934 888.118 901.669 927.118 923.543 C 934.621 927.751 947.465 935.713 953.359 941.494 C 944.076 948.491 937.415 952.903 928.446 960.702 C 910.721 976.116 901.24 991.711 887.696 1009.22 C 865.249 1043.81 858.49 1065.28 846.515 1103.05 C 845.086 1109.22 837.421 1157.58 837.128 1157.77 C 833.999 1159.75 828.699 1159.83 825.023 1160.01 C 780.323 1165.26 735.591 1162.91 690.769 1161.15 C 683.588 1160.86 676.464 1160.76 669.286 1161.24 C 659.155 1194.3 653.264 1296.98 655.965 1332.43 L 586.997 1315.38 C 594.903 1190.27 611.129 1054.15 645.171 933.467 C 685.318 926.428 715.968 915.803 748.993 890.593 z"/>
<path transform="translate(0,0)" fill="rgb(184,219,244)" d="M 825.023 1160.01 C 826.928 1150.56 840.436 1109.08 846.515 1103.05 C 845.086 1109.22 837.421 1157.58 837.128 1157.77 C 833.999 1159.75 828.699 1159.83 825.023 1160.01 z"/>
<path transform="translate(0,0)" fill="rgb(253,253,253)" d="M 406.127 213.343 C 418.931 210.424 444.464 207.404 457.818 206.256 C 581.215 195.647 725.646 209.171 845.671 236.297 C 875.198 286.81 890.008 358.665 910.009 412.805 C 910.172 397.924 907.279 383.781 904.583 369.231 C 893.648 325.382 879.394 267.157 845.718 236.015 C 859.234 239.867 873.161 243.648 886.5 247.987 C 899.917 268.695 913.665 289.336 927.157 310.005 C 980.964 392.43 1000.8 487.879 1021.15 582.641 C 1041.01 675.111 1086.82 757.307 1123.58 843.816 C 1105.88 817.964 1094.34 804.251 1074.74 780.784 C 1056.7 762.2 1040.03 746.539 1020.67 728.448 C 985.933 695.192 935.431 667.496 906.973 629.052 C 883.327 597.108 890.508 536.185 890.771 498.822 C 890.899 480.23 889.82 461.65 887.542 443.199 C 880.44 381.286 860.826 285.313 810.58 243.642 C 760.071 205.073 709.032 259.673 658.663 265.779 C 621.735 270.255 615.658 246.457 612.327 216.926 C 608.381 228.884 607.269 233.414 606.857 245.949 C 562.494 282.806 514.889 211.803 471.359 213.138 C 430.746 214.384 394.5 270.921 369.823 297.014 C 378.384 268.792 390.644 238.372 406.127 213.343 z"/>
<path transform="translate(0,0)" fill="rgb(176,213,241)" d="M 845.718 236.015 C 859.234 239.867 873.161 243.648 886.5 247.987 C 899.917 268.695 913.665 289.336 927.157 310.005 C 980.964 392.43 1000.8 487.879 1021.15 582.641 C 1041.01 675.111 1086.82 757.307 1123.58 843.816 C 1105.88 817.964 1094.34 804.251 1074.74 780.784 C 1075.54 774.579 1063.78 750.205 1060.82 742.888 C 1052.64 722.397 1044.82 701.764 1037.36 680.999 C 1011.88 608.452 994.557 531.721 961.689 462.711 C 954.458 447.529 917.421 373.727 904.583 369.231 C 893.648 325.382 879.394 267.157 845.718 236.015 z"/>
<path transform="translate(0,0)" fill="rgb(253,253,253)" d="M 543.524 928.657 C 574.806 936.037 605.007 936.754 636.861 934.422 C 615.741 997.708 604.974 1063.43 595.805 1129.35 C 587.319 1189.66 581.395 1250.31 578.048 1311.13 L 577.799 1312.3 C 575.025 1313.83 497.917 1294.48 487.278 1292.1 C 489.996 1266.32 491.43 1238.71 493.986 1212.51 C 497.694 1176.51 502.164 1140.6 507.394 1104.8 C 515.673 1046.12 525.783 985.302 543.524 928.657 z"/>
<path transform="translate(0,0)" fill="rgb(176,213,241)" d="M 353.826 603.414 C 344.709 665.234 377.059 730.273 423.729 769.42 C 422.31 782.422 422.098 798.209 421.948 811.268 C 400.122 817.746 373.019 828.336 351.146 836.234 L 351.138 822.201 C 350.117 813.645 352.126 786.453 349.288 782.198 C 347.734 801.33 345.161 819.955 343.526 838.729 C 336.413 841.419 326.969 845.34 319.948 847.625 C 308.829 852.424 297.665 857.118 286.458 861.707 C 244.828 881.193 220.503 893.96 185.452 924.516 C 188.834 918.05 192.057 911.335 195.322 904.795 C 238.266 818.776 288.709 736.804 331.958 650.945 C 339.778 635.422 346.297 619.13 353.826 603.414 z"/>
<path transform="translate(0,0)" fill="rgb(253,253,253)" d="M 320.685 803.306 C 321.139 818.041 320.443 832.886 319.948 847.625 C 308.829 852.424 297.665 857.118 286.458 861.707 C 289.158 850.376 312.916 813.389 320.685 803.306 z"/>
<path transform="translate(0,0)" fill="rgb(8,16,33)" d="M 349.288 782.198 C 349.55 778.338 350.997 769.386 350.971 766.5 C 352.137 772.775 352.239 815.464 351.138 822.201 C 350.117 813.645 352.126 786.453 349.288 782.198 z"/>
<path transform="translate(0,0)" fill="rgb(48,47,50)" d="M 364.264 223.091 C 358.024 220.541 350.629 217.532 346.652 211.79 C 343.559 207.326 343.297 201.207 344.349 196.023 C 346.192 186.94 352.733 180.385 360.261 175.492 C 440.75 123.178 736.264 153.146 827.882 173.206 C 842.132 194.339 829.67 203.877 809.044 209.738 C 800.02 209.273 781.924 205.903 772.474 204.446 C 751.147 201.112 729.77 198.106 708.351 195.431 C 613.448 183.562 485.402 177.18 390.1 199.394 C 384.817 200.625 368.387 206.568 365.844 211.249 C 366.997 213.825 367.68 214.715 369.306 217.055 C 368.85 220.372 367.547 220.376 364.264 223.091 z"/>
<path transform="translate(0,0)" fill="rgb(253,253,253)" d="M 623.636 839.834 C 687.043 835.269 732.611 817.923 784.517 780.702 C 783.974 821.138 782.73 842.632 752.09 873.34 C 745.016 880.429 732.101 890.438 723.186 894.836 C 722.508 895.296 721.822 895.744 721.128 896.18 C 671.281 927.581 601.165 931.08 544.942 918.505 C 544.622 887.801 549.992 862.991 555.894 833.09 C 577.834 838.507 601.178 839.355 623.636 839.834 z"/>
<path transform="translate(0,0)" fill="rgb(176,213,241)" d="M 623.636 839.834 C 687.043 835.269 732.611 817.923 784.517 780.702 C 783.974 821.138 782.73 842.632 752.09 873.34 C 745.016 880.429 732.101 890.438 723.186 894.836 C 725.275 886.355 729.858 880.796 730.467 870.814 C 731.204 858.722 725.834 846.257 712.624 844.093 C 695.488 841.286 676.75 843.065 659.271 842.44 C 647.219 842.009 635.683 840.738 623.636 839.834 z"/>
<path transform="translate(0,0)" fill="rgb(248,200,137)" d="M 147.306 1364.14 C 161.951 1332.9 185.382 1305.96 216.429 1290.27 C 250.365 1273.11 282.618 1277.13 318.149 1286.05 L 329.651 1289.18 C 291.568 1327.38 272.105 1381.51 265.722 1434.26 C 243.003 1428.31 228.96 1423.13 207.624 1411.94 C 195.484 1405.57 175.382 1392.85 163.138 1389.53 C 155.928 1388.8 146.623 1389.09 139.19 1389.14 C 140.832 1380.4 144.023 1372.34 147.306 1364.14 z"/>
<path transform="translate(0,0)" fill="rgb(233,141,67)" d="M 318.149 1286.05 L 329.651 1289.18 C 291.568 1327.38 272.105 1381.51 265.722 1434.26 C 243.003 1428.31 228.96 1423.13 207.624 1411.94 C 195.484 1405.57 175.382 1392.85 163.138 1389.53 L 165.809 1386.13 L 172.404 1388.99 C 197.347 1400 227.117 1401.99 252.792 1392.01 C 271.373 1345.22 278.923 1321.54 318.149 1286.05 z"/>
<path transform="translate(0,0)" fill="rgb(233,141,67)" d="M 139.19 1389.14 C 140.832 1380.4 144.023 1372.34 147.306 1364.14 C 152.765 1373.52 156.034 1380.8 165.809 1386.13 L 163.138 1389.53 C 155.928 1388.8 146.623 1389.09 139.19 1389.14 z"/>
<path transform="translate(0,0)" fill="rgb(176,213,241)" d="M 891.748 627.182 C 894.361 637.464 891.963 671.753 893.612 686.588 C 900.85 751.707 919.165 802.557 950.335 860.075 C 926.582 850.173 902.545 840.965 878.256 832.464 C 851.417 823.102 821.839 812.899 794.698 804.823 C 795.095 794.471 794.986 783.427 795.061 773.018 C 837.218 740.074 868.79 688.512 875.931 635.22 C 883.358 633.468 885.79 631.946 891.748 627.182 z"/>
<path transform="translate(0,0)" fill="rgb(253,253,253)" d="M 813.322 1170.61 C 820.324 1169.27 827.623 1168.14 834.674 1166.96 C 832.821 1174.22 830.66 1182.1 829.141 1189.39 C 821.828 1191.29 816.287 1192.92 809.157 1195.41 C 757.04 1220.46 718.562 1268.11 685.011 1314.19 L 678.762 1323.55 C 675.739 1328.29 672.449 1335.91 666.126 1334.37 C 661.68 1329.46 662.83 1320.87 662.868 1314.11 C 662.7 1265.91 668.218 1215.86 674.69 1168.17 C 720.713 1173.46 767.141 1174.28 813.322 1170.61 z"/>
<path transform="translate(0,0)" fill="rgb(176,213,241)" d="M 813.322 1170.61 C 820.324 1169.27 827.623 1168.14 834.674 1166.96 C 832.821 1174.22 830.66 1182.1 829.141 1189.39 C 821.828 1191.29 816.287 1192.92 809.157 1195.41 C 810.642 1190.28 814.345 1176.7 814.622 1172.01 L 813.322 1170.61 z"/>
<path transform="translate(0,0)" fill="rgb(212,233,247)" d="M 662.868 1314.11 L 666.238 1313.83 C 671.075 1319.07 672.792 1319.95 678.762 1323.55 C 675.739 1328.29 672.449 1335.91 666.126 1334.37 C 661.68 1329.46 662.83 1320.87 662.868 1314.11 z"/>
<path transform="translate(0,0)" fill="rgb(237,247,251)" d="M 666.238 1313.83 C 674.259 1311.69 677.371 1310.81 685.011 1314.19 L 678.762 1323.55 C 672.792 1319.95 671.075 1319.07 666.238 1313.83 z"/>
<path transform="translate(0,0)" fill="rgb(253,253,253)" d="M 472.961 106.991 C 474.915 105.648 476.947 104.422 479.046 103.32 C 549.306 66.2959 656.242 59.4141 731.649 82.803 C 769.086 92.2184 817.689 114.797 847.696 139.509 L 780.187 130.535 C 704.447 120.688 630.142 111.062 553.73 108.425 C 526.926 107.5 499.779 105.924 472.961 106.991 z"/>
<path transform="translate(0,0)" fill="rgb(176,213,241)" d="M 731.649 82.803 C 769.086 92.2184 817.689 114.797 847.696 139.509 L 780.187 130.535 C 770.507 102.321 736.007 92.8879 731.649 82.803 z"/>
<path transform="translate(0,0)" fill="rgb(253,253,253)" d="M 434.253 778.508 C 436.408 779.743 439.427 782.198 441.624 783.735 C 474.165 806.492 510.152 820.595 548.026 831.675 C 540.987 855.228 537.865 879.23 536.052 903.636 L 535.944 916.613 C 506.158 908.75 474.181 894.11 453.295 870.823 C 428.544 843.227 432.219 812.884 434.253 778.508 z"/>
<path transform="translate(0,0)" fill="rgb(248,200,137)" d="M 731.029 1292.89 C 784.623 1255.41 815.686 1230.88 886.035 1238.22 C 900.608 1239.75 939.19 1244.81 948.673 1256.43 C 952.409 1269.64 943.395 1278.76 931.236 1282.32 C 919.374 1285.8 906.084 1279.81 894.328 1277.93 C 863.232 1271.87 832.489 1269.82 802.123 1280.5 C 791.024 1284.41 782.266 1288.94 771.723 1293.46 C 772.937 1291.04 776.203 1288.46 778.328 1286.65 C 772.885 1289.18 761.112 1294.47 756.566 1297.57 C 746.252 1304.59 744.244 1308.94 732.133 1314.34 C 731.987 1311.46 730.638 1294.5 731.029 1292.89 z"/>
<path transform="translate(0,0)" fill="rgb(230,129,54)" d="M 948.673 1256.43 C 952.409 1269.64 943.395 1278.76 931.236 1282.32 C 919.374 1285.8 906.084 1279.81 894.328 1277.93 C 863.232 1271.87 832.489 1269.82 802.123 1280.5 C 791.024 1284.41 782.266 1288.94 771.723 1293.46 C 772.937 1291.04 776.203 1288.46 778.328 1286.65 C 792.761 1279.95 809.423 1273.28 825.236 1270.98 C 837.218 1269.32 849.325 1268.76 861.408 1269.3 C 883.889 1270.45 915.953 1277.68 938.151 1270.6 C 943.682 1268.83 946.781 1261.54 948.673 1256.43 z"/>
<path transform="translate(0,0)" fill="rgb(248,200,137)" d="M 733.049 1324.8 C 737.288 1324.09 747.324 1316.59 751.599 1314 C 804.157 1282.19 847.169 1275.7 907.141 1290.46 C 918.87 1293.34 927.6 1294.61 934.301 1305.18 C 931.262 1340.33 891.974 1327.37 870.164 1322.44 C 832.565 1313.93 810.025 1316.85 775.146 1330.72 C 762.762 1337.95 751.272 1345.34 740.104 1354.37 C 739.722 1354.67 736.451 1354.2 735.78 1354.01 C 734.683 1353.71 733.592 1353.37 732.51 1353.02 C 732.269 1348.44 733.043 1342.29 733.481 1337.6 C 728.508 1337.17 718.364 1337.95 714.745 1336.34 L 716.162 1334.79 C 720.133 1330.39 725.145 1323.61 731.001 1322.89 L 733.049 1324.8 z"/>
<path transform="translate(0,0)" fill="rgb(230,129,54)" d="M 934.301 1305.18 C 931.262 1340.33 891.974 1327.37 870.164 1322.44 C 832.565 1313.93 810.025 1316.85 775.146 1330.72 L 768.936 1330 C 802.34 1314.66 823.059 1310.82 859.848 1315.7 C 876.875 1317.95 929.255 1329.53 934.301 1305.18 z"/>
<path transform="translate(0,0)" fill="url(#Gradient2)" d="M 751.138 1338.09 C 756.4 1335.33 763.385 1332.46 768.936 1330 L 775.146 1330.72 C 762.762 1337.95 751.272 1345.34 740.104 1354.37 C 739.722 1354.67 736.451 1354.2 735.78 1354.01 C 734.683 1353.71 733.592 1353.37 732.51 1353.02 C 732.269 1348.44 733.043 1342.29 733.481 1337.6 C 728.508 1337.17 718.364 1337.95 714.745 1336.34 L 716.162 1334.79 C 718.189 1335.82 746.459 1337.68 751.138 1338.09 z"/>
<path transform="translate(0,0)" fill="rgb(48,47,50)" d="M 821.087 155.958 C 816.837 156.064 790.368 151.263 784.156 150.358 C 761.668 147.298 739.133 144.591 716.56 142.238 C 636.656 133.957 553.137 130.284 472.845 134.501 C 442.442 136.097 412.874 141.432 383.064 147.391 C 372.559 138.038 391.766 126.709 399.189 124.379 C 430.243 114.632 467.818 116.969 500.244 117.448 C 589.907 118.772 679.345 127.179 768.058 139.974 C 780.614 141.789 810.689 143.673 821.188 148.127 C 822.402 151.427 823.476 152.646 821.087 155.958 z"/>
<path transform="translate(0,0)" fill="rgb(248,200,137)" d="M 736.237 1267.83 C 742.701 1260.45 749.412 1253.29 756.357 1246.36 C 792.808 1210.59 824.54 1194.76 876.585 1194.91 C 888.93 1194.95 916.373 1196.48 925.013 1205.37 C 927.071 1219.66 921.837 1225.29 909.163 1231.17 C 841.393 1222.89 815.614 1225.17 759.837 1262.83 C 760.451 1259.4 760.04 1260.65 763 1257.56 L 758.631 1257.49 C 751.135 1260.9 741.943 1268.94 736.237 1267.83 z"/>
<path transform="translate(0,0)" fill="rgb(230,129,54)" d="M 925.013 1205.37 C 927.071 1219.66 921.837 1225.29 909.163 1231.17 C 841.393 1222.89 815.614 1225.17 759.837 1262.83 C 760.451 1259.4 760.04 1260.65 763 1257.56 L 758.631 1257.49 C 796.786 1236.41 819.056 1222.89 864.383 1223.12 C 875.68 1223.18 895.396 1223.49 906.183 1221.03 C 916.067 1218.78 920.353 1213.75 925.013 1205.37 z"/>
<path transform="translate(0,0)" fill="rgb(248,200,137)" d="M 760.898 1347.55 C 782.832 1336.23 804.984 1326.64 830.57 1327.85 C 849.733 1328.77 878.707 1330.05 895.983 1340.59 C 897.388 1341.44 899.701 1345.6 900.49 1347.22 C 898.345 1372.64 867.357 1365.88 850.495 1365.34 C 829.521 1364.67 801.551 1362.49 781.845 1369.94 C 770.836 1365.45 758.924 1361.26 747.724 1357.12 C 752.714 1353.05 755.34 1351 760.898 1347.55 z"/>
<path transform="translate(0,0)" fill="rgb(230,129,54)" d="M 747.724 1357.12 C 752.714 1353.05 755.34 1351 760.898 1347.55 C 777.038 1355.17 791.786 1357.88 809.521 1356.65 C 834.777 1354.91 870.032 1363.46 893.237 1355.23 L 900.49 1347.22 C 898.345 1372.64 867.357 1365.88 850.495 1365.34 C 829.521 1364.67 801.551 1362.49 781.845 1369.94 C 770.836 1365.45 758.924 1361.26 747.724 1357.12 z"/>
<path transform="translate(0,0)" fill="rgb(8,16,33)" d="M 827.882 173.206 C 858.651 179.344 906.618 192.934 927.995 216.355 C 938.806 228.199 915.441 244.414 906.782 242.245 C 905.409 238.148 904.184 234.351 899.584 232.694 C 870.353 222.162 838.744 218.121 809.044 209.738 C 829.67 203.877 842.132 194.339 827.882 173.206 z"/>
<path transform="translate(0,0)" fill="rgb(176,213,241)" d="M 413.895 263.973 L 414.591 264.885 C 401.935 321.636 400.347 374.718 391.247 430.079 C 389.581 422.268 387.215 414.085 385.109 406.337 C 361.336 322.34 341.855 333.807 413.895 263.973 z"/>
<path transform="translate(0,0)" fill="rgb(233,141,67)" d="M 736.237 1267.83 C 741.943 1268.94 751.135 1260.9 758.631 1257.49 L 763 1257.56 C 760.04 1260.65 760.451 1259.4 759.837 1262.83 C 752.893 1268.3 733.438 1282.98 729.676 1289.68 C 729.975 1291.52 729.832 1291.51 731.029 1292.89 C 730.638 1294.5 731.987 1311.46 732.133 1314.34 C 744.244 1308.94 746.252 1304.59 756.566 1297.57 C 761.112 1294.47 772.885 1289.18 778.328 1286.65 C 776.203 1288.46 772.937 1291.04 771.723 1293.46 C 763.068 1299.28 733.424 1314.67 733.049 1324.8 L 731.001 1322.89 C 725.145 1323.61 720.133 1330.39 716.162 1334.79 L 714.745 1336.34 C 718.364 1337.95 728.508 1337.17 733.481 1337.6 C 733.043 1342.29 732.269 1348.44 732.51 1353.02 C 719.144 1348.12 695.047 1342.46 681.076 1338.85 C 696.161 1316.88 717.782 1287.29 736.237 1267.83 z"/>
<path transform="translate(0,0)" fill="rgb(8,16,33)" d="M 860.597 365.86 C 866.695 372.178 875.064 437.03 876.367 448.737 C 864.26 455.149 858.187 458.292 849.846 469.397 L 843.005 479.339 C 840.653 447.728 851.108 395.823 860.597 365.86 z"/>
<path transform="translate(0,0)" fill="rgb(8,16,33)" d="M 864.105 139.469 C 881.437 144.32 922.439 151.373 902.829 178.46 C 867.804 165.479 856.012 164.134 821.087 155.958 C 823.476 152.646 822.402 151.427 821.188 148.127 C 832.221 149.595 866.777 150.439 877.477 149.079 C 873.104 146.108 868.064 142.888 864.105 139.469 z"/>
<path transform="translate(0,0)" fill="rgb(230,129,54)" d="M 876.151 460.839 L 877.255 461.423 C 879.624 467.317 878.967 491.013 878.904 498.623 C 866.929 508.993 862.878 514.971 855.479 528.637 C 853.129 527.556 852.39 525.266 850.789 522.664 C 848.295 517.43 843.9 511.259 840.944 505.425 C 841.418 503.758 841.942 502.105 842.516 500.469 C 848.709 482.922 859.154 469.052 876.151 460.839 z"/>
<path transform="translate(0,0)" fill="rgb(230,129,54)" d="M 876.774 511.716 C 879.945 514.818 876.955 549.411 877.25 556.949 C 878.118 579.11 879.378 592.961 885.82 614.332 C 883.246 616.66 882.131 617.631 879.193 619.583 L 877.498 619.037 L 877.173 615.249 C 877.339 586.995 868.361 563.129 858.351 537.364 C 863.65 526.431 868.714 520.863 876.774 511.716 z"/>
<path transform="translate(0,0)" fill="url(#Gradient1)" d="M 795.698 1377.26 C 818.471 1375.71 828.467 1381.01 847.698 1391.55 C 841.56 1397.4 839.746 1398.55 845.838 1406.62 C 850.263 1412.48 856.847 1420.13 855.42 1428.17 C 838.271 1404.78 820.936 1390.69 795.698 1377.26 z"/>
</svg>